<style>

/* ======================
SOURCE: 
AUTHOR: Leon (https://github.com/Leon2332)
CLIENT: 
====================== */

</style>


<svg
  version="1.0"
  xmlns="http://www.w3.org/2000/svg"
  width="100%"
  height=""
  viewBox="0 0 1000 1000">

<!-- BED -->
  <g>
    <path d="M6.43 16.9V9a2.51 2.51 0 0 1 2.51-2.56H31A2.51 2.51 0 0 1 33.52 9v7.9m2.09 14.84H4.34A1.31 1.31 0 0 1 3 30.43v-8a1.31 1.31 0 0 1 1.31-1.31h31.3a1.31 1.31 0 0 1 1.31 1.31v8a1.31 1.31 0 0 1-1.31 1.31Zm-.45-10.63v-1.66a2.55 2.55 0 0 0-2.55-2.55H7.34a2.55 2.55 0 0 0-2.55 2.55v1.66" class="ci-bed"></path>
  </g>

<!-- BATH -->
  <g>
    <path d="M8.61 32.5 7.4 34.63M31.22 32.5l1.21 2.13M4.33 22.34l1.17 5.49A6.53 6.53 0 0 0 11.89 33h16a6.54 6.54 0 0 0 6.4-5.18l1.16-5.49ZM3 22.34h33.86" class="ci-bath"></path>
    <path d="M9.29 22.34V9.44a3.89 3.89 0 0 1 3.88-3.89h0a3.89 3.89 0 0 1 3.89 3.89v.05M15 17.18v1.74M19.11 17.18v1.74" class="ci-bath"></path>
    <path d="M20.62 13.6H13.5v-1a3.09 3.09 0 0 1 3.09-3.08h.94a3.09 3.09 0 0 1 3.09 3.08Z" class="ci-bath"></path>
  </g>

<!-- SIZE -->
  <g>
    <path d="M13 36.09H6.91a2.84 2.84 0 0 1-2.84-2.83V6.92a2.84 2.84 0 0 1 2.84-2.84h26.34a2.84 2.84 0 0 1 2.83 2.84v26.34a2.83 2.83 0 0 1-2.83 2.83h-14.9" class="ci-building"></path>
    <path d="M13 36.09h0a5.31 5.31 0 0 1 5.31-5.31v5.31M28.11 25.47v10.62M36.08 20.09H13.7M8.39 20.09H4.07m4.32 0h0a5.31 5.31 0 0 1 5.31-5.31v5.31M20.08 14.71v5.38M20.08 4.08V9.4M20.08 14.71h0a5.31 5.31 0 0 0 5.31-5.31h-5.31" class="ci-building"></path>
  </g>
  
</svg>
