<style>

/* ======================
SOURCE: 
AUTHOR: Leon (https://github.com/Leon2332)
CLIENT: 
====================== */

</style>


<svg
  version="1.0"
  xmlns="http://www.w3.org/2000/svg"
  width="100%"
  height=""
  viewBox="0 0 1000 1000">

<!-- BED -->
  <g>
    <path class="cls-1" d="M114.56,531.48v-241.51c-.79-42.37,30.64-77.4,70.2-78.25.48-.01.96-.02,1.44-.02h629.63c39.57-.18,71.77,34.03,71.94,76.41,0,.62,0,1.23-.01,1.85v241.51M947.42,985.15H54.91c-20.64.51-37.76-17.01-38.24-39.12,0-.31,0-.62,0-.93v-244.57c0-22.12,16.74-40.05,37.39-40.05h893.36c20.65,0,37.39,17.93,37.39,40.05h0v244.57c0,22.12-16.74,40.05-37.39,40.05h0ZM934.57,660.18v-50.75c0-43.05-32.59-77.96-72.78-77.96H140.54c-40.2,0-72.78,34.9-72.78,77.96v50.75"/>
  </g>

<!-- BATH -->
  <g>
    <path class="cls-1" d="M177.51,921.31l-34.5,63.85M822.22,921.31l34.5,63.85M55.47,616.76l33.36,164.56c18.31,90.4,94.28,155.02,182.2,154.97h456.23c88.08.04,164.17-64.7,182.49-155.27l33.08-164.56-887.36.3ZM17.55,616.76h965.49"/>
    <path class="cls-1" d="M196.9,616.76V230.08c0-64.28,49.49-116.44,110.63-116.6h0c61.26,0,110.92,52.21,110.92,116.6v1.5M359.72,462.09v52.16M476.91,462.09v52.16"/>
    <path class="cls-1" d="M519.97,354.78h-203.02v-29.98c.16-51.04,39.56-92.32,88.11-92.32h26.8c48.55,0,87.95,41.29,88.11,92.32v29.98Z"/>
  </g>

<!-- SIZE -->
  <g>
    <path class="cls-1" d="M282.74,991.35H95.85c-48.01,0-86.98-38.83-87.15-86.85V96.21C8.7,48.07,47.72,9.05,95.85,9.05h808.3c48.01.17,86.85,39.14,86.85,87.15v808.3c0,47.96-38.88,86.85-86.85,86.85h-457.24"/>
    <path class="cls-1" d="M282.74,991.35h0c0-89.99,72.96-162.95,162.95-162.95v162.95M746.42,665.45v325.9M991,500.36H304.22M141.27,500.36H8.7M141.27,500.36h0c0-89.99,72.96-162.95,162.95-162.95v162.95M500,335.26v165.1M500,9.05v163.26M500,335.26h0c89.99,0,162.95-72.96,162.95-162.95h-162.95"/>
  </g>
  
</svg>
