<style>

/* ======================
SOURCE: https://github.com/Leon2332/SVG-Source-standalone-/blob/main/Amenities.svg
AUTHOR: Leon (https://github.com/Leon2332)
CLIENT: https://www.naankusecollection.com/
====================== */

  .custom_svg_amenities {
    fill: none;
    stroke-width: 5;
    stroke: #434462;
  }

  .custom_svg_amenities_text {
    font-size: 100px;
    fill: #434462;
  }
  
</style>


<svg
  version="1.0"
  xmlns="http://www.w3.org/2000/svg"
  width="100%"
  height=""
  viewBox="0 0 1000 200">

  <!-- BEDS -->
  <text class="custom_svg_amenities_text" x="180" y="150">5</text>
    <path class="custom_svg_amenities" d="M361.75,161.96l-4.87,9.35M452.82,161.96l4.87,9.35M344.51,117.35l4.71,24.11c2.59,13.24,13.32,22.71,25.74,22.7h64.45c12.44,0,23.19-9.48,25.78-22.75l4.67-24.11-125.35.04h0ZM339.15,117.35h136.39"/>
    

  <!-- BATHS -->
  <text class="custom_svg_amenities_text" x="500" y="150">2</text>
    <path class="custom_svg_amenities" d="M364.49,117.35v-56.65c0-9.42,6.99-17.06,15.63-17.08h0c8.65,0,15.67,7.65,15.67,17.08v.22M387.49,94.69v7.64M404.04,94.69v7.64"/>
    <path class="custom_svg_amenities" d="M410.13,78.97h-28.68v-4.39c.02-7.48,5.59-13.52,12.45-13.52h3.79c6.86,0,12.42,6.05,12.45,13.52v4.39h0Z"/>
    <path class="custom_svg_amenities" d="M24.18,107.91v-33.22c-.12-5.83,4.62-10.65,10.58-10.76.07,0,.14,0,.22,0h94.87c5.96-.02,10.81,4.68,10.84,10.51,0,.09,0,.17,0,.25v33.22M149.67,170.32H15.19c-3.11.07-5.69-2.34-5.76-5.38v-33.77c0-3.04,2.52-5.51,5.63-5.51h134.61c3.11,0,5.63,2.47,5.63,5.51h0v33.64c0,3.04-2.52,5.51-5.63,5.51h0ZM147.74,125.61v-6.98c0-5.92-4.91-10.72-10.97-10.72H28.09c-6.06,0-10.97,4.8-10.97,10.72v6.98"/>
     

  <!-- ROOMS -->
  <text class="custom_svg_amenities_text" x="825" y="150">3</text>
    <path class="custom_svg_amenities" d="M704.36,169.32h-24.91c-6.4,0-11.59-4.92-11.62-11V55.95c0-6.1,5.2-11.04,11.62-11.04h107.75c6.4.02,11.58,4.96,11.58,11.04v102.37c0,6.07-5.18,11-11.58,11h-60.95"/>
    <path class="custom_svg_amenities" d="M704.36,169.32h0c0-11.4,9.73-20.64,21.72-20.64v20.64M766.17,128.04v41.27M798.77,107.14h-91.55M685.5,107.14h-17.67M685.5,107.14h0c0-11.4,9.73-20.64,21.72-20.64v20.64M733.32,86.23v20.91M733.32,44.91v20.68M733.32,86.23h0c12,0,21.72-9.24,21.72-20.64h-21.72"/>
     
</svg>
