<svg
  version="1.0"
  xmlns="http://www.w3.org/2000/svg"
  width="100%"
  height=""
  viewBox="0 0 1000 1000">

<!-- SIZE -->
  <g>
    <path class="cls-1" d="M282.74,991.35H95.85c-48.01,0-86.98-38.83-87.15-86.85V96.21C8.7,48.07,47.72,9.05,95.85,9.05h808.3c48.01.17,86.85,39.14,86.85,87.15v808.3c0,47.96-38.88,86.85-86.85,86.85h-457.24"/>
    <path class="cls-1" d="M282.74,991.35h0c0-89.99,72.96-162.95,162.95-162.95v162.95M746.42,665.45v325.9M991,500.36H304.22M141.27,500.36H8.7M141.27,500.36h0c0-89.99,72.96-162.95,162.95-162.95v162.95M500,335.26v165.1M500,9.05v163.26M500,335.26h0c89.99,0,162.95-72.96,162.95-162.95h-162.95"/>
  </g>
  
</svg>
