<style>

  .custom_svg_cheetah {
    fill: #B3A49130;
  }
  
 :has(#custom_checkbox_cheetah input:checked) :is(.custom_svg_cheetah) {
      fill: #B3A491;
  }
  
</style>


<svg
  version="1.0"
  xmlns="http://www.w3.org/2000/svg"
  width="100%"
  height=""
  viewBox="0 0 1000 1000">

   <path class="custom_svg_cheetah" d="M905.15,581.53c-4.3,2.03-19.61,17.11-21.02,20.63-.94,2.27-1.64,2.73-7.81,4.53-12.34,3.67-21.72,7.42-37.34,14.92-8.52,4.14-20.47,9.38-26.64,11.72-13.05,4.92-15.94,5.23-27.34,2.34-17.81-4.53-22.11-5.16-41.41-6.33-18.2-1.02-19.84-1.25-28.28-3.83-5-1.48-17.27-6.41-27.34-10.86-30.08-13.36-40.55-16.41-67.11-19.69-24.53-3.13-71.95.55-100.47,7.66-4.3,1.09-9.92,2.42-12.5,2.89-6.72,1.33-47.81,13.13-51.56,14.77-6.17,2.73-16.09,11.64-43.75,39.53l-28.13,28.28-7.81.47c-11.25.7-18.13,2.19-70.31,15.31-51.09,12.73-90.31,20.7-121.56,24.61-24.61,3.13-32.42,3.28-46.8,1.33-20-2.73-33.2-7.19-62.58-21.02-4.53-2.11-10.16-4.3-12.42-4.84-8.91-2.11-20.55.47-36.95,8.13-10.39,4.92-14.61,7.73-18.83,12.81-8.05,9.61-8.75,20.55-1.95,29.14,3.36,4.3,6.41,5.7,12.03,5.63,6.17-.08,13.98-3.2,24.61-9.77,9.22-5.7,13.75-7.19,19.77-6.41,5.31.7,7.89,1.88,28.67,12.81,25.86,13.67,34.38,16.09,66.64,18.67,31.02,2.42,106.09-8.67,168.13-24.92,14.61-3.83,29.53-7.34,33.13-7.89,9.84-1.41,27.03-.55,34.53,1.8,5.78,1.72,6.17,2.03,10.7,7.5,2.66,3.13,6.56,7.19,8.67,9.06,5.08,4.3,18.36,11.02,25.86,13.05,6.25,1.72,24.61,6.64,50.39,13.59,8.67,2.34,17.58,5.08,19.92,6.17,8.75,3.83,13.52,11.02,13.52,20.39.08,5.31-.16,5.94-7.89,22.34-4.38,9.38-7.97,17.81-7.97,18.75,0,1.02.7,2.89,1.56,4.22.86,1.25,1.56,2.58,1.56,2.89s-1.56,1.02-3.52,1.48c-9.06,2.27-15.55,12.5-10.86,17.11.78.86,9.69,4.84,19.61,8.91,16.33,6.72,19.38,8.28,29.69,15.16,16.25,10.78,23.52,13.13,38.44,12.42,7.89-.31,10-.78,16.48-3.2,4.06-1.56,7.81-2.81,8.36-2.81.47,0,1.64,2.66,2.58,5.78,1.02,3.2,2.5,6.56,3.44,7.34.86.78,16.8,7.5,35.31,14.92,30.55,12.19,33.91,13.67,36.72,16.56,1.64,1.72,4.38,4.14,6.02,5.23,2.58,1.8,3.52,3.28,5.94,9.53,3.13,7.97,5.7,12.34,8.75,14.69,4.45,3.36,35.7,13.59,41.88,13.67,4.61.08,6.8-1.33,8.52-5.47,1.72-4.06,1.33-7.97-2.03-18.28-3.83-11.72-10-22.5-16.8-29.22-15.08-14.92-20.94-18.98-45.31-31.48-4.3-2.19-9.53-5.47-11.64-7.19l-3.75-3.13h3.36c3.36-.08,6.02-.55,13.05-2.34,4.84-1.17,33.44-17.73,37.03-21.33,3.83-3.91,6.95-10.47,6.95-14.3,0-1.72-2.42-13.36-5.39-25.94s-5.16-22.97-5-23.2c.23-.23,3.59-.39,7.5-.39,9.92,0,40.08-2.11,44.3-3.05,10.08-2.27,17.19-5.86,28.75-14.38,11.09-8.2,13.36-10.55,27.89-29.45,15-19.53,33.91-41.02,44.14-50,12.81-11.33,23.91-17.34,36.88-20,4.22-.94,7.27-.94,14.84-.39,9.45.78,15.16,2.19,27.73,6.64,6.95,2.42,9.14,2.5,12.5.47,4.45-2.73,5.47-8.98,2.11-12.5-1.72-1.8-1.88-2.42-1.17-4.3.78-2.11.86-2.19,6.09-1.64,2.97.31,5.94.31,6.64,0,.78-.23,4.53-4.53,8.44-9.45,6.88-8.67,7.03-8.98,6.25-11.41-1.72-4.92-7.42-12.34-14.53-19.06l-7.27-6.88-.55-5.47c-.63-6.02-2.89-11.25-6.64-15.55-3.83-4.3-23.44-19.3-27.73-21.25-4.61-1.95-5.78-3.28-7.42-7.66-1.64-4.45-5.78-6.56-10.39-5.23-1.8.55-3.83,1.09-4.53,1.33-.86.23-1.64-.47-2.27-2.11-2.03-4.77-7.66-6.33-13.28-3.59ZM682.49,840.67c9.3,12.81,11.8,19.92,8.2,23.28-4.38,4.14-23.13,8.98-32.97,8.59l-5.31-.23,10.55-3.44c17.58-5.63,21.88-8.36,21.88-14.06,0-2.42-.78-3.59-6.25-9.22-3.44-3.52-6.25-6.64-6.25-6.95,0-.7,3.98-5,4.61-5,.23,0,2.73,3.2,5.55,7.03ZM597.34,866.77c0,.16-3.28,2.42-7.34,5.08-7.03,4.53-7.5,4.69-12.66,4.77-6.33.16-13.91-2.19-21.56-6.64-2.73-1.56-5.08-3.05-5.23-3.2s10.23-.31,23.2-.31,23.59.16,23.59.31Z"/>

</svg>
