<style>

/* ======================
SOURCE: https://github.com/Leon2332/SVG-Source-standalone-/blob/main/Elephant.svg
AUTHOR: Leon (https://github.com/Leon2332)
CLIENT: https://www.naankusecollection.com/
====================== */


 .custom_svg_elephant {
      fill: #B3A49130;
  }
  
  :has(#custom_checkbox_elephant input:checked) :is(.custom_svg_elephant) {
      fill: #B3A491;
  }

</style>


<svg
  xmlns="http://www.w3.org/2000/svg"
  xmlns:xlink="http://www.w3.org/1999/xlink"
  version="1.1"
  viewBox="0 0 1000 1000"
  width="100%"
  height=""
  xml:space="preserve">

  <path class="custom_svg_elephant" d="M723.57,240.36c13.88,1.16,64.05-2.31,77.92,0s34.16,8.09,50.17,15.03c16.01,6.94,21.35,8.09,30.96,21.97,9.61,15.03,20.28,34.69,24.55,39.32,3.2,4.63,14.94,20.82,23.48,33.54,8.54,13.88,10.67,18.5,21.35,46.26,10.67,26.6,24.55,46.26,27.75,55.51s9.61,38.16,12.81,50.88c3.2,11.56,6.4,35.85,6.4,47.41s-1.07,56.66-3.2,70.54c-2.13,13.88-21.35,217.41-22.42,230.13s-7.47,79.79-9.61,87.89c-2.13,8.09-8.54,38.16-11.74,45.1-3.2,6.94-11.74,15.03-19.21,15.03h-14.94s-3.2-4.63-3.2-6.94c0-1.16,3.2-2.31,4.27-9.25,1.07-6.94,3.2-48.57,3.2-63.6s0-151.49,1.07-169.99c0-18.5,0-55.51-2.13-72.85-2.13-17.35-4.27-46.26-10.67-62.45-5.34-16.19-12.81-42.79-21.35-53.19-8.54-11.56-14.94-16.19-17.08-16.19s-5.34,5.78-10.67,3.47c-5.34-1.16-11.74-10.41-17.08-10.41s-13.88,2.31-19.21,2.31-20.28,2.31-23.48,4.63c-3.2,2.31-1.07,37.01-3.2,46.26-3.2,9.25-4.27,9.25-6.4,8.09-2.13-1.16,2.13-23.13-3.2-30.07-5.34-6.94-10.67-8.09-18.15-9.25-6.4-1.16-9.61-1.16-9.61-1.16,0,0,6.4,26.6,6.4,30.07s-9.61,4.63-17.08,3.47c-7.47-2.31-37.36-17.35-37.36-17.35,0,0-14.94,1.16-18.15,4.63-3.2,3.47-17.08,26.6-17.08,26.6,0,0,5.34,23.13,5.34,28.91v15.03s6.4,37.01,8.54,61.29,3.2,80.95,3.2,86.73,3.2,26.6,3.2,34.69c1.07,8.09,2.13,26.6,1.07,34.69s-5.34,37.01-5.34,41.63c0,3.47-1.07,12.72,4.27,24.28,6.4,11.56,19.21,30.07,20.28,37.01,1.07,6.94,4.27,13.88,2.13,18.5s-113.15,0-113.15,0l-4.27-1.16s-6.4-10.41-4.27-19.66c2.13-9.25,8.54-19.66,11.74-21.97,3.2-3.47,7.47-13.88,8.54-20.82,0-6.94-2.13-38.16-4.27-54.35-2.13-16.19-13.88-62.45-13.88-62.45,0,0-19.21,57.82-19.21,63.6s-5.34,17.35-9.61,24.28c-4.27,6.94-12.81,15.03-12.81,18.5,0,2.31-2.13,11.56,2.13,18.5s25.62,26.6,27.75,32.38c2.13,4.63,5.34,18.5,0,23.13h-111.01s-7.47-8.09-5.34-25.44c2.13-16.19,9.61-23.13,13.88-26.6,4.27-3.47,9.61-11.56,10.67-16.19,1.07-4.63,11.74-74.01,14.94-89.04,3.2-15.03,8.54-63.6,8.54-70.54s0-48.57,2.13-62.45c2.13-12.72,4.27-26.6,4.27-26.6,0,0-5.34-12.72-5.34-15.03,0-3.47-7.47,0-9.61,0s-5.34,4.63-20.28,9.25c-14.94,4.63-37.36,15.03-53.37,21.97-16.01,6.94-58.71,23.13-92.87,27.75-34.16,3.47-81.12-6.94-81.12-6.94,0,0-36.29-6.94-43.76-2.31-6.4,3.47-17.08,28.91-22.42,46.26-5.34,17.35-9.61,31.22-9.61,45.1,0,15.03,1.07,100.61,2.13,107.55,1.07,6.94,5.34,18.5,12.81,26.6,7.47,6.94,30.96,30.07,30.96,33.54,0,2.31,0,10.41-3.2,13.88-3.2,3.47-69.38,0-69.38,0,0,0-5.34,6.94-7.47,8.09H36.14c-6.4,0-10.67-18.5-6.4-26.6,4.27-9.25,6.4-13.88,6.4-18.5s0-18.5-1.07-24.28,1.07-21.97,4.27-35.85c3.2-12.72,11.74-90.2,11.74-97.14s2.13-33.54,0-39.32c-2.13-6.94-10.67-30.07-9.61-41.63,0-11.56-3.2-39.32-2.13-50.88s4.27-40.47,4.27-48.57c0-6.94,1.07-26.6-2.13-32.38-3.2-6.94-10.67-27.75-10.67-34.69v-5.78s-1.07,26.6-1.07,30.07,0,41.63-2.13,48.57-3.2,26.6-4.27,37.01c-1.07,11.56-1.07,46.26-2.13,52.04s-4.27,52.04-4.27,56.66-2.13,9.25-5.34,9.25-10.67,0-8.54-13.88c1.07-13.88,5.34-49.73,6.4-58.98,1.07-8.09,0-55.51,0-60.13s0-18.5,1.07-25.44c1.07-6.94,1.07-35.85,0-41.63-1.07-5.78-4.27-12.72-3.2-24.28s1.07-23.13,0-25.44,0-15.03,1.07-19.66c1.07-4.63,1.07-24.28,1.07-27.75s2.13-12.72,7.47-20.82c6.4-8.09,21.35-37.01,26.69-45.1,5.34-8.09,17.08-33.54,22.42-42.79,5.34-9.25,24.55-37.01,44.83-54.35,20.28-17.35,46.97-41.63,53.37-46.26,6.4-4.63,26.69-20.82,34.16-26.6,7.47-5.78,30.96-18.5,59.78-21.97,28.82-3.47,62.98,0,73.65,3.47,10.67,3.47,32.02,11.56,43.76,15.03,11.74,3.47,26.69,15.03,54.44,15.03s65.11-6.94,89.66-12.72c25.62-5.78,39.5-8.09,44.83-10.41s26.69-18.5,40.56-18.5,27.75,2.31,32.02,3.47c4.27,1.16,14.94,2.31,18.15,3.47s12.81,8.09,21.35,12.72c9.61,5.78,32.02,17.35,46.97,18.5Z"/>

</svg>
