<style>

  .custom_svg_giraffe {
    fill: #B3A491;
  }

  .custom_svg_giraffe:hover {
    fill: #B3A49165;
  }

</style>


<svg
  version="1.0"
  xmlns="http://www.w3.org/2000/svg"
  width=""
  height="96%"
  viewBox="0 0 931.000000 1280.000000"
  preserveAspectRatio="xMidYMid meet">



<g transform="translate(0.000000,1280.000000) scale(0.100000,-0.100000)">


<path class="custom_svg_giraffe" d="M1370 12778 c-38 -26 -42 -37 -59 -183 -15 -129 -36 -180 -92 -237
-61 -61 -89 -63 -150 -12 -24 20 -54 40 -66 45 -15 5 -21 14 -17 24 9 23 -19
28 -59 11 -48 -20 -93 -85 -107 -154 -15 -74 -60 -165 -113 -229 -45 -55 -175
-165 -219 -185 -30 -14 -73 -81 -65 -102 10 -26 -276 -331 -300 -321 -21 8
-93 -54 -92 -79 1 -12 -6 -50 -16 -85 -11 -41 -15 -80 -11 -110 4 -25 7 -57 9
-71 3 -33 16 -52 32 -47 7 3 38 -8 70 -24 90 -45 188 -40 268 14 15 10 24 23
21 28 -3 6 3 13 14 16 11 2 24 13 28 24 8 18 23 20 194 24 277 7 444 43 600
130 52 29 108 56 123 59 38 9 79 -22 107 -78 48 -100 166 -558 250 -971 163
-803 291 -1186 543 -1625 161 -280 275 -431 663 -870 300 -340 396 -460 524
-657 68 -104 71 -110 65 -153 -7 -48 -34 -119 -108 -290 -60 -138 -81 -245
-74 -370 7 -121 30 -194 124 -394 52 -112 84 -196 109 -290 19 -72 50 -183 69
-246 26 -91 31 -116 20 -125 -10 -8 -9 -33 6 -130 10 -66 22 -210 25 -320 11
-328 -16 -545 -116 -940 -106 -421 -133 -562 -146 -772 -6 -101 -5 -113 10
-119 10 -4 15 -13 12 -20 -3 -8 -17 -81 -31 -162 -27 -150 -119 -500 -245
-927 -84 -283 -135 -482 -151 -585 -6 -41 -17 -79 -25 -85 -9 -6 -15 -37 -18
-82 -6 -94 -39 -218 -87 -321 -43 -93 -65 -123 -191 -265 -137 -154 -218 -278
-262 -404 -15 -41 -14 -43 7 -55 15 -8 73 -12 172 -13 177 0 233 14 302 78 52
47 68 76 83 143 9 40 9 50 -4 59 -13 10 -3 30 64 131 92 139 91 137 152 187
27 21 59 57 72 80 15 26 66 199 131 441 58 220 191 697 295 1060 347 1215 688
2434 725 2592 14 62 32 120 39 130 33 44 67 -40 112 -274 35 -183 62 -266 151
-462 126 -275 134 -303 187 -605 38 -214 75 -360 132 -514 43 -113 137 -311
189 -396 39 -62 69 -152 181 -530 132 -446 310 -1125 404 -1541 l32 -141 -37
-181 c-20 -100 -34 -186 -31 -191 3 -5 51 -14 107 -21 175 -22 270 -1 317 70
22 32 23 43 19 130 -3 78 -10 108 -36 170 -46 107 -51 141 -61 370 -16 378
-44 495 -258 1091 -115 318 -142 443 -223 1028 -62 452 -90 593 -180 902 -126
430 -166 587 -188 739 -14 92 -31 335 -30 410 l1 55 10 -47 10 -46 86 -27 c59
-18 132 -53 227 -110 223 -132 212 -128 360 -135 112 -5 138 -10 190 -34 74
-33 80 -39 176 -158 246 -302 384 -614 464 -1045 72 -389 83 -876 29 -1344
-51 -450 -217 -1284 -300 -1508 -25 -67 -90 -181 -204 -358 -59 -92 -58 -98 9
-133 41 -20 136 -38 111 -21 -11 8 -1 11 40 12 91 3 104 5 135 22 38 20 88 72
110 116 9 19 24 75 32 125 17 110 49 172 116 229 74 62 99 132 141 399 40 253
164 957 207 1172 58 291 102 454 160 585 27 64 73 172 102 241 50 122 51 128
52 227 0 56 1 100 3 99 10 -10 92 -212 123 -303 96 -282 127 -525 149 -1148
10 -277 21 -462 36 -575 29 -225 78 -443 139 -620 72 -209 235 -505 350 -635
l35 -40 21 25 c31 37 95 167 114 235 12 41 16 81 13 137 -4 74 -9 86 -101 275
-105 214 -142 327 -192 586 -59 300 -69 424 -70 802 0 227 5 387 13 455 27
217 52 349 92 475 29 90 43 156 47 215 4 55 11 89 20 95 11 8 11 17 2 45 -27
79 -58 115 -244 285 -326 299 -365 578 -230 1625 14 107 29 203 33 213 5 12
48 -89 136 -320 284 -747 430 -1114 486 -1228 99 -201 189 -303 493 -558 134
-111 181 -146 191 -138 9 8 22 0 51 -29 36 -36 75 -53 75 -31 0 22 -156 424
-191 491 -21 42 -84 132 -140 200 -55 69 -108 138 -116 155 -27 52 -95 136
-125 151 -15 8 -28 20 -28 26 0 6 -35 48 -78 93 -100 104 -170 203 -237 335
-104 207 -146 347 -260 862 -89 406 -139 567 -236 761 -85 169 -187 301 -329
425 -156 137 -295 219 -785 462 -288 144 -519 266 -618 327 -194 121 -427 284
-427 300 0 6 -22 27 -48 46 -62 46 -139 128 -180 193 -35 56 -117 235 -148
324 -30 85 -169 216 -352 329 -119 74 -238 131 -504 242 -505 210 -668 302
-909 515 -229 202 -458 503 -674 883 -48 85 -241 460 -428 834 -187 373 -357
705 -379 738 -24 36 -54 67 -76 78 l-36 19 31 6 c45 10 128 66 158 106 26 36
33 87 15 120 -6 11 -29 31 -53 44 -44 26 -179 46 -312 46 -49 0 -64 4 -69 16
-5 13 -15 15 -51 9 -36 -5 -53 -2 -83 15 -50 28 -100 110 -57 94 20 -8 29 33
29 146 1 80 -3 103 -23 143 -44 91 -151 132 -221 85z m6940 -9441 c0 -16 -18
3 -23 25 -6 22 -5 22 8 4 8 -11 15 -24 15 -29z m-5275 -2817 c-9 -16 -18 -30
-21 -30 -2 0 2 14 11 30 9 17 18 30 21 30 2 0 -2 -13 -11 -30z"/>
</g>
</svg>
