<style>

/* ======================
SOURCE: https://github.com/Leon2332/SVG-Source-standalone-/blob/main/Giraffe.svg
AUTHOR: Leon (https://github.com/Leon2332)
CLIENT: https://www.naankusecollection.com/
====================== */


  .custom_svg_giraffe {
    fill: #B3A49130;
  }
    
  :has(#custom_checkbox_giraffe input:checked) :is(.custom_svg_giraffe) {
    fill: #B3A491;
  }

</style>


<svg
  version="1.0"
  xmlns="http://www.w3.org/2000/svg"
  width=""
  height="100%"
  viewBox="0 0 1000 1000"
  preserveAspectRatio="xMidYMid meet">


<path class="custom_svg_giraffe" d="M267.28,4.19c-2.95,2.02-3.27,2.88-4.59,14.22-1.17,10.03-2.8,13.99-7.15,18.42-4.74,4.74-6.92,4.9-11.66.93-1.87-1.55-4.2-3.11-5.13-3.5-1.17-.39-1.63-1.09-1.32-1.87.7-1.79-1.48-2.18-4.59-.85-3.73,1.55-7.23,6.61-8.32,11.97-1.17,5.75-4.66,12.82-8.79,17.8-3.5,4.27-13.61,12.82-17.03,14.38-2.33,1.09-5.68,6.29-5.05,7.93.78,2.02-21.46,25.72-23.32,24.95-1.63-.62-7.23,4.2-7.15,6.14.08.93-.47,3.89-1.24,6.61-.86,3.19-1.17,6.22-.86,8.55.31,1.94.54,4.43.7,5.52.23,2.56,1.24,4.04,2.49,3.65.54-.23,2.95.62,5.44,1.87,7,3.5,14.62,3.11,20.84-1.09,1.17-.78,1.87-1.79,1.63-2.18-.23-.47.23-1.01,1.09-1.24.86-.16,1.87-1.01,2.18-1.87.62-1.4,1.79-1.55,15.08-1.87,21.54-.54,34.52-3.34,46.65-10.1,4.04-2.25,8.4-4.35,9.56-4.59,2.95-.7,6.14,1.71,8.32,6.06,3.73,7.77,12.91,43.37,19.44,75.46,12.67,62.41,22.62,92.17,42.22,126.29,12.52,21.76,21.38,33.5,51.54,67.61,23.32,26.42,30.79,35.75,40.74,51.06,5.29,8.08,5.52,8.55,5.05,11.89-.54,3.73-2.64,9.25-8.4,22.54-4.66,10.72-6.3,19.04-5.75,28.75.54,9.4,2.33,15.08,9.64,30.62,4.04,8.7,6.53,15.23,8.47,22.54,1.48,5.6,3.89,14.22,5.36,19.12,2.02,7.07,2.41,9.02,1.55,9.71-.78.62-.7,2.56.47,10.1.78,5.13,1.71,16.32,1.94,24.87.86,25.49-1.24,42.35-9.02,73.05-8.24,32.72-10.34,43.68-11.35,60-.47,7.85-.39,8.78.78,9.25.78.31,1.17,1.01.93,1.55-.23.62-1.32,6.29-2.41,12.59-2.1,11.66-9.25,38.86-19.05,72.04-6.53,21.99-10.5,37.46-11.74,45.46-.47,3.19-1.32,6.14-1.94,6.61-.7.47-1.17,2.88-1.4,6.37-.47,7.31-3.03,16.94-6.76,24.95-3.34,7.23-5.05,9.56-14.85,20.59-10.65,11.97-16.95,21.6-20.37,31.4-1.17,3.19-1.09,3.34.54,4.27,1.17.62,5.68.93,13.37,1.01,13.76,0,18.11-1.09,23.48-6.06,4.04-3.65,5.29-5.91,6.45-11.11.7-3.11.7-3.89-.31-4.59-1.01-.78-.23-2.33,4.98-10.18,7.15-10.8,7.07-10.65,11.82-14.53,2.1-1.63,4.59-4.43,5.6-6.22,1.17-2.02,5.13-15.47,10.18-34.27,4.51-17.1,14.85-54.17,22.93-82.38,26.98-94.42,53.49-189.16,56.36-201.44,1.09-4.82,2.49-9.33,3.03-10.1,2.57-3.42,5.21,3.11,8.71,21.29,2.72,14.22,4.82,20.67,11.74,35.9,9.8,21.37,10.42,23.55,14.54,47.02,2.95,16.63,5.83,27.98,10.26,39.95,3.34,8.78,10.65,24.17,14.69,30.78,3.03,4.82,5.36,11.81,14.07,41.19,10.26,34.66,24.1,87.43,31.41,119.76l2.49,10.96-2.88,14.07c-1.55,7.77-2.64,14.46-2.41,14.84s3.96,1.09,8.32,1.63c13.61,1.71,20.99.08,24.65-5.44,1.71-2.49,1.79-3.34,1.48-10.1-.23-6.06-.78-8.39-2.8-13.21-3.58-8.32-3.96-10.96-4.74-28.75-1.24-29.38-3.42-38.47-20.06-84.79-8.94-24.71-11.04-34.43-17.34-79.89-4.82-35.13-7-46.09-13.99-70.1-9.8-33.42-12.91-45.62-14.62-57.43-1.09-7.15-2.41-26.03-2.33-31.86l.08-4.27.78,3.65.78,3.57,6.69,2.1c4.59,1.4,10.26,4.12,17.65,8.55,17.34,10.26,16.48,9.95,27.99,10.49,8.71.39,10.73.78,14.77,2.64,5.75,2.56,6.22,3.03,13.68,12.28,19.13,23.47,29.85,47.72,36.07,81.21,5.6,30.23,6.45,68.08,2.25,104.45-3.96,34.97-16.87,99.79-23.32,117.2-1.94,5.21-7,14.07-15.86,27.82-4.59,7.15-4.51,7.62.7,10.34,3.19,1.55,10.57,2.95,8.63,1.63-.86-.62-.08-.85,3.11-.93,7.07-.23,8.09-.39,10.5-1.71,2.95-1.55,6.84-5.6,8.55-9.02.7-1.48,1.87-5.83,2.49-9.71,1.32-8.55,3.81-13.37,9.02-17.8,5.75-4.82,7.7-10.26,10.96-31.01,3.11-19.66,12.75-74.37,16.09-91.08,4.51-22.62,7.93-35.28,12.44-45.46,2.1-4.97,5.68-13.37,7.93-18.73,3.89-9.48,3.96-9.95,4.04-17.64,0-4.35.08-7.77.23-7.69.78.78,7.15,16.48,9.56,23.55,7.46,21.92,9.87,40.8,11.58,89.22.78,21.53,1.63,35.9,2.8,44.69,2.25,17.49,6.06,34.43,10.81,48.18,5.6,16.24,18.27,39.25,27.21,49.35l2.72,3.11,1.63-1.94c2.41-2.88,7.39-12.98,8.86-18.26.93-3.19,1.24-6.29,1.01-10.65-.31-5.75-.7-6.68-7.85-21.37-8.16-16.63-11.04-25.41-14.93-45.54-4.59-23.31-5.36-32.95-5.44-62.33,0-17.64.39-30.08,1.01-35.36,2.1-16.86,4.04-27.12,7.15-36.91,2.25-6.99,3.34-12.12,3.65-16.71.31-4.27.86-6.92,1.55-7.38.86-.62.86-1.32.16-3.5-2.1-6.14-4.51-8.94-18.97-22.15-25.34-23.24-28.38-44.92-17.88-126.29,1.09-8.32,2.25-15.78,2.57-16.55.39-.93,3.73,6.92,10.57,24.87,22.08,58.05,33.43,86.58,37.78,95.43,7.7,15.62,14.69,23.55,38.33,43.37,10.42,8.63,14.07,11.35,14.85,10.72.7-.62,1.71,0,3.96,2.25,2.8,2.8,5.83,4.12,5.83,2.41s-12.13-32.95-14.85-38.16c-1.63-3.26-6.53-10.26-10.88-15.54-4.28-5.36-8.4-10.72-9.02-12.05-2.1-4.04-7.39-10.57-9.72-11.74-1.17-.62-2.18-1.55-2.18-2.02s-2.72-3.73-6.06-7.23c-7.77-8.08-13.22-15.78-18.43-26.03-8.09-16.09-11.35-26.97-20.21-66.99-6.92-31.55-10.81-44.06-18.35-59.14-6.61-13.13-14.54-23.39-25.58-33.03-12.13-10.65-22.93-17.02-61.03-35.9-22.39-11.19-40.35-20.67-48.05-25.41-15.08-9.4-33.2-22.07-33.2-23.31,0-.47-1.71-2.1-3.73-3.57-4.82-3.57-10.81-9.95-13.99-15-2.72-4.35-9.1-18.26-11.51-25.18-2.33-6.61-13.14-16.79-27.37-25.57-9.25-5.75-18.5-10.18-39.18-18.81-39.26-16.32-51.93-23.47-70.67-40.02-17.8-15.7-35.61-39.09-52.4-68.62-3.73-6.61-18.74-35.75-33.27-64.81-14.54-28.99-27.75-54.79-29.47-57.35-1.87-2.8-4.2-5.21-5.91-6.06l-2.8-1.48,2.41-.47c3.5-.78,9.95-5.13,12.28-8.24,2.02-2.8,2.57-6.76,1.17-9.33-.47-.85-2.25-2.41-4.12-3.42-3.42-2.02-13.92-3.57-24.26-3.57-3.81,0-4.98-.31-5.36-1.24-.39-1.01-1.17-1.17-3.96-.7-2.8.39-4.12.16-6.45-1.17-3.89-2.18-7.77-8.55-4.43-7.31,1.55.62,2.25-2.56,2.25-11.35.08-6.22-.23-8-1.79-11.11-3.42-7.07-11.74-10.26-17.18-6.61ZM806.82,737.91c0,1.24-1.4-.23-1.79-1.94-.47-1.71-.39-1.71.62-.31.62.85,1.17,1.87,1.17,2.25ZM396.72,956.83c-.7,1.24-1.4,2.33-1.63,2.33-.16,0,.16-1.09.86-2.33.7-1.32,1.4-2.33,1.63-2.33.16,0-.16,1.01-.86,2.33Z"/>

</svg>
