<style>

/* ======================
SOURCE: https://github.com/Leon2332/SVG-Source-standalone-/blob/main/Kudu.svg
AUTHOR: Leon (https://github.com/Leon2332)
CLIENT: https://www.naankusecollection.com/
====================== */


    .custom_svg_kudu {
        fill: #B3A49130;
    }
    
    :has(#custom_checkbox_kudu input:checked) :is(.custom_svg_kudu) {
        fill: #B3A491;
    }
    
</style>

<svg
    xmlns="http://www.w3.org/2000/svg"
    xmlns:xlink="http://www.w3.org/1999/xlink"
    version="1.1" id="Calque_1" x="0px" y="0px"
    viewBox="0 0 1000 1000"
    width="100%"
    height=""
    xml:space="preserve">

    <path class="custom_svg_kudu" d="M859.01,479.1c-5.04-3.03-12.1-9.09-13.1-11.11-1.01-2.02-7.06-7.07-11.09-10.1-4.03-2.02-16.13-13.13-16.13-13.13,0,0,7.06,0,10.08-5.05,3.02-5.05,21.17-45.45,18.14-49.49-3.02-5.05-6.05-3.03-11.09-2.02-5.04,1.01-39.31,17.17-39.31,17.17,0,0,3.02-10.1,6.05-16.16,3.02-7.07,10.08-20.2,10.08-20.2,0,0,1.01-1.01-2.02-5.05-3.02-4.04-7.06-11.11-9.07-12.12s-3.02-2.02-12.1,0c-9.07,2.02-27.21,6.06-39.31,5.05-12.1-1.01-19.15-1.01-31.25-8.08-12.1-7.07-23.18-17.17-25.2-31.31s-4.03-28.28,0-39.39c4.03-11.11,7.06-18.18,4.03-22.22-3.02-3.03-4.03-10.1-11.09-10.1s-24.19,3.03-34.27,2.02c-10.08-1.01-37.29-7.07-40.32-7.07s-9.07-2.02-9.07-2.02c0,0-2.02,3.03,3.02,4.04,5.04,1.01,27.21,10.1,37.29,12.12,10.08,2.02,35.28,3.03,35.28,3.03,0,0-3.02,4.04-5.04,22.22-2.02,18.18-3.02,32.32,3.02,45.45,6.05,13.13,10.08,18.18,10.08,18.18,0,0-13.1-2.02-21.17-2.02s-18.14,0-28.22-5.05c-10.08-5.05-14.11-15.15-15.12-24.24s-8.06-49.49-12.1-56.56c-4.03-7.07-19.15-23.23-25.2-26.26-6.05-3.03-15.12-11.11-43.34-14.14-28.22-3.03-43.34-8.08-50.4-15.15s-7.06-8.08-7.06-8.08l-7.06-2.02s5.04,12.12,10.08,17.17,15.12,14.14,23.18,15.15c8.06,2.02,38.3,8.08,43.34,10.1s23.18,10.1,29.23,18.18c5.04,8.08,12.1,17.17,14.11,27.27s5.04,39.39,8.06,47.47c3.02,8.08,3.02,17.17,23.18,29.29,0,0,4.03,7.07,10.08,10.1,7.06,3.03,16.13,6.06,39.31,6.06s34.27,1.01,39.31,3.03,15.12,7.07,16.13,10.1,0,7.07,0,7.07c0,0-5.04,4.04-10.08,10.1-5.04,6.06-11.09,20.2-12.1,22.22,0,2.02-2.02,11.11-2.02,11.11,0,0-9.07,6.06-14.11,12.12s-26.21,21.21-28.22,24.24c-2.02,2.02-8.06,14.14-14.11,18.18-6.05,4.04-18.14,6.06-26.21,6.06-7.06,0-40.32-11.11-59.47-13.13-18.14-2.02-40.32-2.02-49.39,0-9.07,2.02-34.27,5.05-45.36,9.09-10.08,4.04-32.25,16.16-42.33,17.17-11.09,1.01-40.32-3.03-48.38-3.03s-37.29,0-44.35,2.02c-6.05,1.01-14.11,0-22.17-2.02-9.07-2.02-16.13-5.05-30.24,0-14.11,5.05-24.19,14.14-27.21,17.17-3.02,3.03-14.11,5.05-20.16,8.08-6.05,3.03-13.1,11.11-18.14,15.15-5.04,4.04-14.11,8.08-17.13,11.11s-9.07,8.08-12.1,21.21c-2.02,13.13,0,27.27,0,43.43,0,15.15,5.04,36.36,12.1,53.53,7.06,17.17,12.1,39.39,8.06,45.45-3.02,6.06-4.03,24.24-15.12,42.42-12.1,17.17-20.16,28.28-20.16,31.31s0,20.2,2.02,29.29-1.01,144.44-3.02,145.45-2.02,6.06-2.02,9.09,6.05,8.08,8.06,8.08,2.02,13.13,2.02,13.13h33.26s-15.12-17.17-16.13-27.27c-2.02-11.11-4.03-64.64-2.02-88.89,2.02-24.24,7.06-60.6,24.19-80.8,16.13-20.2,34.27-46.46,35.28-51.51s16.13-19.19,19.15-23.23-3.02,8.08-6.05,14.14-27.21,49.49-29.23,53.53c-2.02,3.03-6.05,4.04-3.02,12.12,3.02,7.07,15.12,35.35,17.13,45.45,2.02,10.1,37.29,115.15,38.3,118.18,1.01,3.03-2.02,8.08-2.02,10.1s2.02,7.07,5.04,7.07,6.05,1.01,7.06,2.02c1.01,1.01,0,9.09,0,9.09h30.24s-47.37-114.14-49.39-125.25c-2.02-10.1-5.04-29.29-4.03-38.38,1.01-9.09,7.06-27.27,14.11-36.36,7.06-9.09,26.21-34.34,29.23-43.43,3.02-9.09,7.06-20.2,15.12-24.24,8.06-4.04,17.13-5.05,24.19-2.02,7.06,2.02,25.2,10.1,42.33,10.1s57.45-7.07,69.55-10.1c12.1-3.03,30.24-2.02,32.25-2.02s3.02,4.04,4.03,7.07c1.01,4.04,0,18.18,0,24.24,1.01,6.06,4.03,18.18,4.03,20.2s0,19.19,2.02,29.29,7.06,20.2,7.06,24.24-1.01,32.32,0,39.39c2.02,6.06,3.02,17.17,3.02,24.24s0,53.53-2.02,63.63c-2.02,10.1-8.06,17.17-8.06,22.22,0,10.1,7.06,8.08,7.06,18.18h24.19s-5.04-21.21-5.04-25.25,0-55.55,1.01-67.67c1.01-12.12,6.05-35.35,8.06-38.38s5.04-20.2,4.03-24.24c-1.01-4.04-1.01-28.28,0-31.31,0,0,3.02,12.12,5.04,17.17,2.02,5.05,4.03,23.23,4.03,26.26s4.03,18.18,5.04,26.26c1.01,8.08,7.06,42.42,7.06,51.51s2.02,30.3,2.02,34.34-6.05,15.15,3.02,18.18c3.02,1.01,7.06,8.08,7.06,12.12h27.21s-8.06-15.15-10.08-22.22c-2.02-7.07-13.1-75.75-14.11-86.87-1.01-12.12,2.02-46.46,3.02-51.51s0-30.3,0-37.37,2.02-25.25,2.02-34.34v-23.23s8.06-6.06,9.07-7.07,4.03,6.06,4.03,6.06l1.01-5.05,4.03,8.08,1.01-8.08,3.02,12.12,2.02-12.12s6.05,7.07,7.06,10.1l-1.01-10.1,5.04,8.08-1.01-10.1,5.04,7.07-2.02-10.1,5.04,4.04-2.02-7.07,5.04,3.03-3.02-5.05,1.01-3.03,7.06,4.04-2.02-10.1,7.06,2.02-4.03-6.06,5.04,1.01-4.03-13.13s7.06,7.07,14.11,11.11v-3.03l4.03,4.04,1.01-4.04,2.02,5.05,2.02-3.03s5.04,6.06,7.06,7.07l-2.02-7.07,6.05,5.05-2.02-7.07,6.05,6.06-2.02-8.08,4.03,4.04v-9.09l2.02,6.06,1.01-5.05,4.03,7.07v-9.09l3.02,6.06,1.01-10.1,3.02,7.07,1.01-8.08,3.02,6.06-1.01-10.1,3.02,7.07,1.01-9.09,3.02,5.05v-9.09l5.04,7.07-3.02-17.17,3.02,12.12,1.01-15.15,2.02,10.1,2.02-14.14,2.02,6.06,2.02-12.12,2.02,7.07,3.02-12.12,2.02,10.1s6.05-39.39,6.05-45.45c0,0,1.01,17.17,2.02,22.22l1.01-12.12s2.02,8.08,3.02,12.12v-10.1l6.05,12.12-2.02-12.12s2.02,7.07,5.04,9.09c0,0-3.02-8.08-3.02-11.11l4.03,7.07s-2.02-16.16-2.02-17.17,0,2.02,0,2.02c0,0,5.04,10.1,5.04,12.12l-2.02-18.18s5.04,13.13,6.05,15.15c0,0-5.04-48.48-5.04-56.56l4.03,4.04v-8.08s3.02,5.05,3.02,5.05v-10.1l2.02,6.06s2.02-19.19,1.01-27.27l3.02,1.01,1.01-5.05,1.01,3.03,1.01,2.02,2.02,1.01,2.02-5.05,2.02,5.05,2.02-2.02,1.01,5.05,2.02-3.03,2.02,6.06,2.02-6.06,2.02,6.06,2.02-4.04,2.02,5.05,1.01-5.05,3.02,3.03,2.02-4.04,1.01,5.05,3.02-7.07,2.02,4.04s-2.02-13.13,0-21.21c2.02-7.07,6.05-11.11,8.06-12.12,2.02-1.01,10.08-1.01,10.08-1.01,0,0,15.12,2.02,18.14,0,3.02-2.02,14.11-7.07,15.12-8.08,1.01-1.01,4.03-1.01,4.03-4.04,0-2.02-1.01-7.07,0-10.1,1.01-2.02,4.03-6.06,3.02-8.08,1.01,0-6.05-8.08-8.06-9.09Z"/>

</svg>
