<style>

.custom_svg_lion {
  fill: #B3A491;
}

.custom_svg_lion:hover {
  fill: #B3A49165;
}

</style>


<svg
  version="1.0"
  xmlns="http://www.w3.org/2000/svg"
  width="100%"
  height=""
  viewBox="0 0 1280 1280"
  preserveAspectRatio="xMidYMid meet">



  <g class="custom_svg_lion" transform="translate(0.000000,1580.000000) scale(0.100000,-0.100000)">
  
    <path d="M2546 9857 c-8 -18 -15 -26 -15 -19 -1 6 -5 12 -10 12 -6 0 -7 -16
    -4 -35 4 -28 2 -35 -11 -35 -9 0 -16 -8 -16 -20 0 -11 -2 -20 -5 -20 -7 0 -63
    60 -67 71 -2 5 -13 6 -26 3 -16 -5 -21 -12 -17 -24 9 -30 -10 -31 -49 -5 -51
    35 -60 31 -31 -13 13 -20 27 -52 31 -70 6 -30 5 -32 -22 -32 -16 0 -47 11 -69
    24 -42 25 -63 26 -137 4 -21 -6 -38 -16 -38 -22 0 -5 15 -25 32 -43 24 -25 29
    -36 20 -42 -7 -4 -10 -15 -6 -24 10 -26 -22 -32 -90 -18 -54 11 -61 11 -73 -4
    -8 -12 -20 -16 -38 -11 -17 4 -27 2 -31 -8 -3 -7 -23 -21 -45 -31 -37 -17 -54
    -45 -26 -45 6 0 29 -5 51 -11 27 -7 35 -14 28 -21 -7 -7 -20 -7 -43 1 -46 16
    -84 14 -121 -7 -18 -10 -39 -17 -45 -15 -7 3 -13 -3 -13 -12 0 -14 -10 -16
    -82 -9 -46 4 -98 13 -116 21 -18 7 -37 11 -43 8 -19 -12 66 -125 94 -125 7 0
    1 -38 -7 -47 -1 -2 -17 1 -34 6 -36 11 -51 -1 -32 -25 7 -8 32 -23 56 -34 47
    -20 54 -35 27 -56 -17 -12 -17 -13 -1 -19 9 -4 14 -13 11 -21 -3 -8 1 -21 8
    -30 21 -25 20 -66 -1 -81 -25 -18 -25 -30 0 -38 23 -7 26 -33 6 -60 -8 -11
    -12 -24 -9 -31 2 -6 -3 -14 -11 -17 -22 -9 -20 -34 2 -41 19 -6 102 -80 102
    -91 0 -18 51 -115 61 -115 12 0 3 -58 -14 -78 -5 -7 -33 -24 -61 -38 -59 -30
    -155 -124 -210 -207 -38 -58 -43 -96 -10 -83 11 4 22 -1 31 -14 15 -21 16 -20
    65 26 27 25 52 43 56 40 3 -4 -8 -21 -27 -38 -18 -16 -36 -41 -41 -53 -10 -27
    8 -85 27 -85 7 0 -1 -31 -23 -87 -60 -152 -67 -176 -67 -238 0 -112 27 -176
    80 -187 15 -3 18 -13 15 -60 -3 -55 -3 -55 28 -62 31 -6 31 -7 25 -50 -7 -47
    4 -66 25 -41 18 22 30 18 30 -10 0 -14 5 -25 11 -25 6 0 26 -12 45 -27 l35
    -26 -3 -126 -2 -126 34 -55 c18 -30 44 -67 56 -83 27 -32 31 -28 58 65 25 87
    37 82 32 -14 -3 -62 0 -87 10 -99 8 -9 17 -40 20 -70 4 -30 13 -64 20 -76 8
    -12 14 -39 14 -59 0 -27 7 -42 30 -62 24 -21 30 -34 30 -67 0 -41 24 -90 40
    -80 10 6 40 -46 40 -70 0 -12 30 -66 57 -105 2 -2 16 -4 30 -5 29 0 37 -19 48
    -108 5 -40 45 -137 57 -137 4 0 10 5 13 10 4 6 14 1 25 -12 28 -35 50 -10 50
    58 0 63 14 77 34 32 9 -20 15 -26 15 -15 1 9 5 17 10 17 4 0 11 -31 15 -69 5
    -46 14 -78 27 -94 10 -14 19 -30 19 -36 0 -7 10 -25 21 -41 13 -17 20 -37 16
    -49 -3 -12 1 -42 9 -68 18 -59 31 -116 48 -212 8 -45 19 -77 28 -82 12 -7 17
    -42 23 -179 4 -93 11 -173 17 -176 5 -3 8 -22 7 -43 -3 -50 10 -139 28 -183
    11 -28 21 -38 41 -40 25 -3 27 -7 33 -63 7 -63 30 -128 51 -141 6 -4 14 -2 16
    4 5 16 22 15 22 -1 0 -19 37 -50 49 -42 6 3 11 33 11 66 0 32 4 59 9 59 10 0
    21 -58 21 -112 0 -21 5 -38 10 -38 16 0 30 -47 41 -135 12 -107 17 -125 32
    -125 18 0 34 50 47 139 7 50 16 78 28 87 23 17 35 -5 30 -54 -3 -21 -1 -54 4
    -74 4 -20 10 -76 12 -124 3 -48 9 -91 15 -97 15 -15 30 1 37 41 9 52 22 72 45
    72 25 0 28 9 50 150 12 83 34 109 26 30 -8 -68 0 -84 38 -74 l28 7 -7 -92 c-6
    -69 -4 -96 5 -108 7 -8 18 -25 24 -36 19 -39 43 -33 64 15 10 24 21 60 25 80
    4 22 15 42 26 48 11 6 20 20 20 31 0 31 27 76 49 82 12 3 21 15 23 33 4 40 22
    32 30 -13 4 -21 12 -65 18 -97 6 -33 13 -63 16 -67 2 -4 0 -10 -5 -13 -8 -5
    -24 -61 -23 -81 4 -78 26 -135 51 -135 4 0 8 37 9 83 1 101 10 229 17 235 7 7
    46 -45 73 -98 12 -25 32 -61 42 -80 11 -19 41 -96 66 -170 25 -74 68 -192 95
    -263 27 -70 71 -207 98 -305 27 -97 59 -206 71 -242 81 -250 92 -317 69 -433
    -10 -48 -9 -64 5 -101 12 -32 14 -50 7 -69 -10 -25 -12 -25 -83 -20 -84 6
    -191 -18 -279 -62 -64 -33 -168 -134 -198 -192 -37 -74 -30 -101 47 -175 49
    -48 80 -69 111 -78 24 -6 131 -13 239 -14 l196 -3 9 -26 c6 -19 19 -29 45 -37
    23 -6 222 -10 519 -10 l482 0 63 56 c87 78 93 90 71 161 -14 47 -17 95 -17
    258 1 213 4 232 51 271 33 28 42 76 28 149 -7 33 -10 77 -7 99 5 41 -13 190
    -30 245 -19 63 -24 173 -10 251 25 139 34 274 38 569 2 162 7 297 10 300 3 3
    23 -4 44 -17 48 -27 70 -28 70 -2 0 18 5 19 48 13 26 -3 55 -10 64 -14 24 -13
    66 -11 74 2 4 7 24 -7 53 -39 25 -28 56 -54 69 -57 20 -6 22 -3 22 38 0 24 3
    47 8 51 4 4 7 33 7 64 1 68 8 82 42 82 22 0 24 -3 19 -26 -6 -22 -5 -24 13
    -15 10 6 21 17 24 24 11 30 88 26 108 -5 9 -14 313 -16 330 -2 8 6 46 14 84
    18 39 3 81 8 95 11 247 53 359 86 391 112 14 12 75 35 139 55 19 6 51 18 70
    28 61 31 112 43 217 50 71 4 108 11 120 22 10 9 33 19 50 23 18 3 35 11 38 16
    4 5 21 9 38 9 18 0 43 7 57 15 14 8 44 23 66 34 53 25 230 144 269 182 17 16
    34 29 37 29 3 0 23 -30 43 -67 21 -38 65 -104 98 -148 34 -44 75 -98 92 -120
    16 -22 46 -76 65 -120 19 -44 62 -127 95 -185 34 -58 81 -141 105 -185 24 -44
    69 -118 100 -165 80 -121 103 -163 143 -265 71 -181 82 -229 82 -360 -1 -185
    -46 -336 -168 -570 -64 -121 -71 -125 -190 -89 -155 48 -282 19 -381 -86 -61
    -64 -76 -94 -76 -153 0 -76 19 -101 113 -148 75 -38 90 -42 182 -46 l100 -6
    40 -49 c65 -81 60 -80 359 -74 144 2 268 7 276 10 8 3 62 7 119 10 l105 4 54
    58 54 58 4 92 c3 79 10 109 45 201 23 59 56 153 74 208 18 55 46 136 63 180
    17 44 40 116 52 160 12 44 34 107 48 140 103 243 110 317 43 430 -45 75 -82
    180 -112 314 -21 95 -25 270 -9 384 6 37 15 132 20 210 25 351 31 424 34 452
    3 17 7 131 11 255 3 124 10 259 15 300 5 41 12 110 16 153 3 42 10 77 14 77 5
    0 14 -26 20 -57 89 -468 337 -1009 615 -1344 76 -91 252 -267 342 -340 184
    -151 490 -329 567 -329 19 0 69 -12 112 -26 125 -41 162 -41 294 -4 142 41
    238 86 259 122 9 15 28 30 43 33 42 10 77 43 84 80 4 23 16 41 35 52 37 24
    109 125 122 172 5 20 12 59 14 87 l5 51 -65 26 c-36 15 -96 29 -134 32 -37 4
    -80 8 -95 10 -86 10 -269 -75 -316 -148 -43 -65 -142 -161 -195 -186 -41 -20
    -58 -22 -110 -17 -171 16 -474 232 -647 461 -73 96 -217 344 -247 425 -9 25
    -38 97 -64 161 -59 145 -127 386 -144 509 -4 24 -9 48 -11 51 -2 4 -8 59 -13
    123 -6 63 -15 125 -21 136 -6 11 -15 84 -21 163 -5 78 -21 216 -36 307 -14 91
    -32 203 -38 250 -12 81 -17 100 -35 145 -15 38 -30 102 -30 129 0 45 -39 146
    -79 205 -21 31 -56 92 -79 136 -25 51 -67 110 -111 159 -39 43 -71 82 -71 87
    0 10 -178 155 -285 231 -44 32 -99 71 -121 88 -23 16 -111 65 -195 109 -140
    71 -253 113 -369 136 -19 4 -54 13 -77 21 -23 7 -52 15 -65 18 -13 2 -79 18
    -148 36 -117 30 -133 32 -250 26 -69 -3 -172 -14 -230 -25 -58 -11 -125 -23
    -150 -27 -25 -3 -63 -13 -85 -21 -48 -17 -214 -62 -270 -73 -161 -32 -522 -66
    -795 -75 -107 -3 -253 -10 -325 -15 -199 -15 -393 -13 -452 5 -47 14 -204 114
    -393 250 -41 30 -122 86 -180 126 -58 39 -124 87 -147 106 -39 31 -108 70
    -286 159 -37 19 -72 34 -77 34 -14 0 -12 16 5 50 12 23 13 30 3 30 -7 0 -36
    11 -65 24 -37 18 -59 37 -79 68 -15 24 -40 59 -56 78 -46 55 -94 119 -144 193
    -32 47 -52 67 -67 67 -12 1 -36 9 -53 18 -94 51 -111 62 -127 80 -10 10 -34
    27 -55 36 -21 9 -46 29 -56 44 -18 27 -95 82 -114 82 -5 0 -15 7 -22 15 -7 8
    -21 15 -32 15 -10 0 -21 7 -24 15 -3 8 -21 20 -40 27 -38 14 -40 30 -4 38 42
    10 36 30 -10 30 -49 0 -81 15 -74 34 3 8 1 17 -5 20 -6 4 -8 13 -4 21 9 25
    -50 18 -91 -10 -50 -34 -58 -32 -16 3 l34 29 -29 14 c-21 10 -31 23 -33 43 -2
    18 -11 30 -23 33 -12 3 -19 14 -19 29 0 28 -6 29 -52 9 -32 -13 -133 -13 -146
    0 -2 2 10 16 27 31 22 18 29 30 22 37 -7 7 -14 7 -23 0 -7 -6 -29 -13 -48 -16
    -19 -3 -45 -9 -57 -13 -19 -5 -23 -2 -23 14 0 12 5 24 10 27 6 3 10 10 10 16
    0 19 -41 8 -126 -36 -94 -49 -124 -52 -103 -13 6 13 21 33 32 46 l20 22 -55 0
    c-40 0 -62 -5 -81 -20 -35 -28 -51 -26 -43 5 9 36 -9 31 -38 -10 -83 -113 -76
    -106 -92 -90 -9 8 -20 15 -25 15 -5 0 -11 11 -15 25 -3 13 -15 27 -25 30 -10
    4 -19 15 -19 26 0 24 -32 25 -51 2 -24 -30 -39 -62 -39 -82 0 -22 -15 -34 -42
    -36 -12 -1 -21 10 -29 34 -17 52 -21 56 -35 36 -11 -15 -16 -16 -30 -4 -14 11
    -18 11 -29 -4 -18 -26 -29 -21 -48 21 -9 20 -28 42 -42 49 -24 11 -27 9 -39
    -20z m384 -5132 c0 -19 -4 -37 -10 -40 -6 -4 -10 12 -10 40 0 28 4 44 10 40 6
    -3 10 -21 10 -40z m200 -162 c0 -10 -5 -25 -10 -33 -7 -11 -10 -7 -10 18 0 17
    5 32 10 32 6 0 10 -8 10 -17z"/>
    
    <path d="M2390 5960 c0 -5 5 -10 10 -10 6 0 10 5 10 10 0 6 -4 10 -10 10 -5 0
    -10 -4 -10 -10z"/>
    
    <path d="M3244 4205 c-7 -29 -1 -41 15 -30 14 8 14 55 1 55 -5 0 -12 -11 -16
    -25z"/>
  
  </g>
</svg>
