<style>

/* ======================
SOURCE: https://github.com/Leon2332/SVG-Source-standalone-/blob/main/Lion.svg
AUTHOR: Leon (https://github.com/Leon2332)
CLIENT: https://www.naankusecollection.com/
====================== */

  
  .custom_svg_lion {
    fill: #B3A49130;
  }
    
  :has(#custom_checkbox_lion input:checked) :is(.custom_svg_lion) {
    fill: #B3A491;
  }

</style>


<svg
  version="1.0"
  xmlns="http://www.w3.org/2000/svg"
  width="100%"
  height=""
  viewBox="0 0 1000 1000"
  preserveAspectRatio="xMidYMid meet">

  <path class="custom_svg_lion" d="M184.41,381.5c-.63,1.41-1.17,2.03-1.17,1.48-.08-.47-.39-.94-.78-.94-.47,0-.55,1.25-.31,2.73.31,2.19.16,2.73-.86,2.73-.7,0-1.25.63-1.25,1.56,0,.86-.16,1.56-.39,1.56-.55,0-4.92-4.69-5.23-5.55-.16-.39-1.02-.47-2.03-.23-1.25.39-1.64.94-1.33,1.88.7,2.34-.78,2.42-3.83.39-3.98-2.73-4.69-2.42-2.42,1.02,1.02,1.56,2.11,4.06,2.42,5.47.47,2.34.39,2.5-1.72,2.5-1.25,0-3.67-.86-5.39-1.88-3.28-1.95-4.92-2.03-10.7-.31-1.64.47-2.97,1.25-2.97,1.72,0,.39,1.17,1.95,2.5,3.36,1.88,1.95,2.27,2.81,1.56,3.28-.55.31-.78,1.17-.47,1.88.78,2.03-1.72,2.5-7.03,1.41-4.22-.86-4.77-.86-5.7.31-.63.94-1.56,1.25-2.97.86-1.33-.31-2.11-.16-2.42.63-.23.55-1.8,1.64-3.52,2.42-2.89,1.33-4.22,3.52-2.03,3.52.47,0,2.27.39,3.98.86,2.11.55,2.73,1.09,2.19,1.64s-1.56.55-3.36-.08c-3.59-1.25-6.56-1.09-9.45.55-1.41.78-3.05,1.33-3.52,1.17-.55-.23-1.02.23-1.02.94,0,1.09-.78,1.25-6.41.7-3.59-.31-7.66-1.02-9.06-1.64-1.41-.55-2.89-.86-3.36-.63-1.48.94,5.16,9.77,7.34,9.77.55,0,.08,2.97-.55,3.67-.08.16-1.33-.08-2.66-.47-2.81-.86-3.98.08-2.5,1.95.55.63,2.5,1.8,4.38,2.66,3.67,1.56,4.22,2.73,2.11,4.38-1.33.94-1.33,1.02-.08,1.48.7.31,1.09,1.02.86,1.64s.08,1.64.63,2.34c1.64,1.95,1.56,5.16-.08,6.33-1.95,1.41-1.95,2.34,0,2.97,1.8.55,2.03,2.58.47,4.69-.63.86-.94,1.88-.7,2.42.16.47-.23,1.09-.86,1.33-1.72.7-1.56,2.66.16,3.2,1.48.47,7.97,6.25,7.97,7.11,0,1.41,3.98,8.98,4.77,8.98.94,0,.23,4.53-1.09,6.09-.39.55-2.58,1.88-4.77,2.97-4.61,2.34-12.11,9.69-16.41,16.17-2.97,4.53-3.36,7.5-.78,6.48.86-.31,1.72.08,2.42,1.09,1.17,1.64,1.25,1.56,5.08-2.03,2.11-1.95,4.06-3.36,4.38-3.13.23.31-.63,1.64-2.11,2.97-1.41,1.25-2.81,3.2-3.2,4.14-.78,2.11.63,6.64,2.11,6.64.55,0-.08,2.42-1.8,6.8-4.69,11.88-5.23,13.75-5.23,18.59,0,8.75,2.11,13.75,6.25,14.61,1.17.23,1.41,1.02,1.17,4.69q-.23,4.3,2.19,4.84c2.42.47,2.42.55,1.95,3.91-.55,3.67.31,5.16,1.95,3.2,1.41-1.72,2.34-1.41,2.34.78,0,1.09.39,1.95.86,1.95s2.03.94,3.52,2.11l2.73,2.03-.23,9.84-.16,9.84,2.66,4.3c1.41,2.34,3.44,5.23,4.38,6.48,2.11,2.5,2.42,2.19,4.53-5.08,1.95-6.8,2.89-6.41,2.5,1.09-.23,4.84,0,6.8.78,7.73.63.7,1.33,3.13,1.56,5.47.31,2.34,1.02,5,1.56,5.94.63.94,1.09,3.05,1.09,4.61,0,2.11.55,3.28,2.34,4.84,1.88,1.64,2.34,2.66,2.34,5.23,0,3.2,1.88,7.03,3.13,6.25.78-.47,3.13,3.59,3.13,5.47,0,.94,2.34,5.16,4.45,8.2.16.16,1.25.31,2.34.39,2.27,0,2.89,1.48,3.75,8.44.39,3.13,3.52,10.7,4.45,10.7.31,0,.78-.39,1.02-.78.31-.47,1.09-.08,1.95.94,2.19,2.73,3.91.78,3.91-4.53,0-4.92,1.09-6.02,2.66-2.5.7,1.56,1.17,2.03,1.17,1.17.08-.7.39-1.33.78-1.33.31,0,.86,2.42,1.17,5.39.39,3.59,1.09,6.09,2.11,7.34.78,1.09,1.48,2.34,1.48,2.81,0,.55.78,1.95,1.64,3.2,1.02,1.33,1.56,2.89,1.25,3.83-.23.94.08,3.28.7,5.31,1.41,4.61,2.42,9.06,3.75,16.56.63,3.52,1.48,6.02,2.19,6.41.94.55,1.33,3.28,1.8,13.98.31,7.27.86,13.52,1.33,13.75.39.23.63,1.72.55,3.36-.23,3.91.78,10.86,2.19,14.3.86,2.19,1.64,2.97,3.2,3.13,1.95.23,2.11.55,2.58,4.92.55,4.92,2.34,10,3.98,11.02.47.31,1.09.16,1.25-.31.39-1.25,1.72-1.17,1.72.08,0,1.48,2.89,3.91,3.83,3.28.47-.23.86-2.58.86-5.16s.31-4.61.7-4.61c.78,0,1.64,4.53,1.64,8.75,0,1.64.39,2.97.78,2.97,1.25,0,2.34,3.67,3.2,10.55.94,8.36,1.33,9.77,2.5,9.77,1.41,0,2.66-3.91,3.67-10.86.55-3.91,1.25-6.09,2.19-6.8,1.8-1.33,2.73.39,2.34,4.22-.23,1.64-.08,4.22.31,5.78.31,1.56.78,5.94.94,9.69.23,3.75.7,7.11,1.17,7.58,1.17,1.17,2.34-.08,2.89-3.2.7-4.06,1.72-5.63,3.52-5.63,1.95,0,2.19-.7,3.91-11.72.94-6.48,2.66-8.52,2.03-2.34-.63,5.31,0,6.56,2.97,5.78l2.19-.55-.55,7.19c-.47,5.39-.31,7.5.39,8.44.55.63,1.41,1.95,1.88,2.81,1.48,3.05,3.36,2.58,5-1.17.78-1.88,1.64-4.69,1.95-6.25.31-1.72,1.17-3.28,2.03-3.75s1.56-1.56,1.56-2.42c0-2.42,2.11-5.94,3.83-6.41.94-.23,1.64-1.17,1.8-2.58.31-3.13,1.72-2.5,2.34,1.02.31,1.64.94,5.08,1.41,7.58.47,2.58,1.02,4.92,1.25,5.23.16.31,0,.78-.39,1.02-.63.39-1.88,4.77-1.8,6.33.31,6.09,2.03,10.55,3.98,10.55.31,0,.63-2.89.7-6.48.08-7.89.78-17.89,1.33-18.36.55-.55,3.59,3.52,5.7,7.66.94,1.95,2.5,4.77,3.28,6.25.86,1.48,3.2,7.5,5.16,13.28s5.31,15,7.42,20.55c2.11,5.47,5.55,16.17,7.66,23.83,2.11,7.58,4.61,16.09,5.55,18.91,6.33,19.53,7.19,24.77,5.39,33.83-.78,3.75-.7,5,.39,7.89.94,2.5,1.09,3.91.55,5.39-.78,1.95-.94,1.95-6.48,1.56-6.56-.47-14.92,1.41-21.8,4.84-5,2.58-13.13,10.47-15.47,15-2.89,5.78-2.34,7.89,3.67,13.67,3.83,3.75,6.25,5.39,8.67,6.09,1.88.47,10.23,1.02,18.67,1.09l15.31.23.7,2.03c.47,1.48,1.48,2.27,3.52,2.89,1.8.47,17.34.78,40.55.78h37.66l4.92-4.38c6.8-6.09,7.27-7.03,5.55-12.58-1.09-3.67-1.33-7.42-1.33-20.16.08-16.64.31-18.13,3.98-21.17,2.58-2.19,3.28-5.94,2.19-11.64-.55-2.58-.78-6.02-.55-7.73.39-3.2-1.02-14.84-2.34-19.14-1.48-4.92-1.88-13.52-.78-19.61,1.95-10.86,2.66-21.41,2.97-44.45.16-12.66.55-23.2.78-23.44s1.8.31,3.44,1.33c3.75,2.11,5.47,2.19,5.47.16,0-1.41.39-1.48,3.75-1.02,2.03.23,4.3.78,5,1.09,1.88,1.02,5.16.86,5.78-.16.31-.55,1.88.55,4.14,3.05,1.95,2.19,4.38,4.22,5.39,4.45,1.56.47,1.72.23,1.72-2.97,0-1.88.23-3.67.63-3.98.31-.31.55-2.58.55-5,.08-5.31.63-6.41,3.28-6.41,1.72,0,1.88.23,1.48,2.03-.47,1.72-.39,1.88,1.02,1.17.78-.47,1.64-1.33,1.88-1.88.86-2.34,6.88-2.03,8.44.39.7,1.09,24.45,1.25,25.78.16.63-.47,3.59-1.09,6.56-1.41,3.05-.23,6.33-.63,7.42-.86,19.3-4.14,28.05-6.72,30.55-8.75,1.09-.94,5.86-2.73,10.86-4.3,1.48-.47,3.98-1.41,5.47-2.19,4.77-2.42,8.75-3.36,16.95-3.91,5.55-.31,8.44-.86,9.38-1.72.78-.7,2.58-1.48,3.91-1.8,1.41-.23,2.73-.86,2.97-1.25.31-.39,1.64-.7,2.97-.7,1.41,0,3.36-.55,4.45-1.17s3.44-1.8,5.16-2.66c4.14-1.95,17.97-11.25,21.02-14.22,1.33-1.25,2.66-2.27,2.89-2.27s1.8,2.34,3.36,5.23c1.64,2.97,5.08,8.13,7.66,11.56,2.66,3.44,5.86,7.66,7.19,9.38,1.25,1.72,3.59,5.94,5.08,9.38s4.84,9.92,7.42,14.45c2.66,4.53,6.33,11.02,8.2,14.45s5.39,9.22,7.81,12.89c6.25,9.45,8.05,12.73,11.17,20.7,5.55,14.14,6.41,17.89,6.41,28.13-.08,14.45-3.59,26.25-13.13,44.53-5,9.45-5.55,9.77-14.84,6.95-12.11-3.75-22.03-1.48-29.77,6.72-4.77,5-5.94,7.34-5.94,11.95,0,5.94,1.48,7.89,8.83,11.56,5.86,2.97,7.03,3.28,14.22,3.59l7.81.47,3.13,3.83c5.08,6.33,4.69,6.25,28.05,5.78,11.25-.16,20.94-.55,21.56-.78s4.84-.55,9.3-.78l8.2-.31,4.22-4.53,4.22-4.53.31-7.19c.23-6.17.78-8.52,3.52-15.7,1.8-4.61,4.38-11.95,5.78-16.25s3.59-10.63,4.92-14.06,3.13-9.06,4.06-12.5,2.66-8.36,3.75-10.94c8.05-18.98,8.59-24.77,3.36-33.59-3.52-5.86-6.41-14.06-8.75-24.53-1.64-7.42-1.95-21.09-.7-30,.47-2.89,1.17-10.31,1.56-16.41,1.95-27.42,2.42-33.13,2.66-35.31.23-1.33.55-10.23.86-19.92.23-9.69.78-20.23,1.17-23.44s.94-8.59,1.25-11.95c.23-3.28.78-6.02,1.09-6.02.39,0,1.09,2.03,1.56,4.45,6.95,36.56,26.33,78.83,48.05,105,5.94,7.11,19.69,20.86,26.72,26.56,14.38,11.8,38.28,25.7,44.3,25.7,1.48,0,5.39.94,8.75,2.03,9.77,3.2,12.66,3.2,22.97.31,11.09-3.2,18.59-6.72,20.23-9.53.7-1.17,2.19-2.34,3.36-2.58,3.28-.78,6.02-3.36,6.56-6.25.31-1.8,1.25-3.2,2.73-4.06,2.89-1.88,8.52-9.77,9.53-13.44.39-1.56.94-4.61,1.09-6.8l.39-3.98-5.08-2.03c-2.81-1.17-7.5-2.27-10.47-2.5-2.89-.31-6.25-.63-7.42-.78-6.72-.78-21.02,5.86-24.69,11.56-3.36,5.08-11.09,12.58-15.23,14.53-3.2,1.56-4.53,1.72-8.59,1.33-13.36-1.25-37.03-18.13-50.55-36.02-5.7-7.5-16.95-26.88-19.3-33.2-.7-1.95-2.97-7.58-5-12.58-4.61-11.33-9.92-30.16-11.25-39.77-.31-1.88-.7-3.75-.86-3.98-.16-.31-.63-4.61-1.02-9.61-.47-4.92-1.17-9.77-1.64-10.63s-1.17-6.56-1.64-12.73c-.39-6.09-1.64-16.88-2.81-23.98-1.09-7.11-2.5-15.86-2.97-19.53-.94-6.33-1.33-7.81-2.73-11.33-1.17-2.97-2.34-7.97-2.34-10.08,0-3.52-3.05-11.41-6.17-16.02-1.64-2.42-4.38-7.19-6.17-10.63-1.95-3.98-5.23-8.59-8.67-12.42-3.05-3.36-5.55-6.41-5.55-6.8,0-.78-13.91-12.11-22.27-18.05-3.44-2.5-7.73-5.55-9.45-6.88-1.8-1.25-8.67-5.08-15.23-8.52-10.94-5.55-19.77-8.83-28.83-10.63-1.48-.31-4.22-1.02-6.02-1.64-1.8-.55-4.06-1.17-5.08-1.41-1.02-.16-6.17-1.41-11.56-2.81-9.14-2.34-10.39-2.5-19.53-2.03-5.39.23-13.44,1.09-17.97,1.95s-9.77,1.8-11.72,2.11c-1.95.23-4.92,1.02-6.64,1.64-3.75,1.33-16.72,4.84-21.09,5.7-12.58,2.5-40.78,5.16-62.11,5.86-8.36.23-19.77.78-25.39,1.17-15.55,1.17-30.7,1.02-35.31-.39-3.67-1.09-15.94-8.91-30.7-19.53-3.2-2.34-9.53-6.72-14.06-9.84-4.53-3.05-9.69-6.8-11.48-8.28-3.05-2.42-8.44-5.47-22.34-12.42-2.89-1.48-5.63-2.66-6.02-2.66-1.09,0-.94-1.25.39-3.91.94-1.8,1.02-2.34.23-2.34-.55,0-2.81-.86-5.08-1.88-2.89-1.41-4.61-2.89-6.17-5.31-1.17-1.88-3.13-4.61-4.38-6.09-3.59-4.3-7.34-9.3-11.25-15.08-2.5-3.67-4.06-5.23-5.23-5.23-.94-.08-2.81-.7-4.14-1.41-7.34-3.98-8.67-4.84-9.92-6.25-.78-.78-2.66-2.11-4.3-2.81s-3.59-2.27-4.38-3.44c-1.41-2.11-7.42-6.41-8.91-6.41-.39,0-1.17-.55-1.72-1.17s-1.64-1.17-2.5-1.17c-.78,0-1.64-.55-1.88-1.17s-1.64-1.56-3.13-2.11c-2.97-1.09-3.13-2.34-.31-2.97,3.28-.78,2.81-2.34-.78-2.34-3.83,0-6.33-1.17-5.78-2.66.23-.63.08-1.33-.39-1.56-.47-.31-.63-1.02-.31-1.64.7-1.95-3.91-1.41-7.11.78-3.91,2.66-4.53,2.5-1.25-.23l2.66-2.27-2.27-1.09c-1.64-.78-2.42-1.8-2.58-3.36-.16-1.41-.86-2.34-1.8-2.58s-1.48-1.09-1.48-2.27c0-2.19-.47-2.27-4.06-.7-2.5,1.02-10.39,1.02-11.41,0-.16-.16.78-1.25,2.11-2.42,1.72-1.41,2.27-2.34,1.72-2.89s-1.09-.55-1.8,0c-.55.47-2.27,1.02-3.75,1.25s-3.52.7-4.45,1.02c-1.48.39-1.8.16-1.8-1.09,0-.94.39-1.88.78-2.11.47-.23.78-.78.78-1.25,0-1.48-3.2-.63-9.84,2.81-7.34,3.83-9.69,4.06-8.05,1.02.47-1.02,1.64-2.58,2.5-3.59l1.56-1.72h-4.3c-3.13,0-4.84.39-6.33,1.56-2.73,2.19-3.98,2.03-3.36-.39.7-2.81-.7-2.42-2.97.78-6.48,8.83-5.94,8.28-7.19,7.03-.7-.63-1.56-1.17-1.95-1.17s-.86-.86-1.17-1.95c-.23-1.02-1.17-2.11-1.95-2.34-.78-.31-1.48-1.17-1.48-2.03,0-1.88-2.5-1.95-3.98-.16-1.88,2.34-3.05,4.84-3.05,6.41,0,1.72-1.17,2.66-3.28,2.81-.94.08-1.64-.78-2.27-2.66-1.33-4.06-1.64-4.38-2.73-2.81-.86,1.17-1.25,1.25-2.34.31-1.09-.86-1.41-.86-2.27.31-1.41,2.03-2.27,1.64-3.75-1.64-.7-1.56-2.19-3.28-3.28-3.83-1.88-.86-2.11-.7-3.05,1.56ZM214.41,782.43c0,1.48-.31,2.89-.78,3.13-.47.31-.78-.94-.78-3.13s.31-3.44.78-3.13c.47.23.78,1.64.78,3.13ZM230.03,795.09c0,.78-.39,1.95-.78,2.58-.55.86-.78.55-.78-1.41,0-1.33.39-2.5.78-2.5.47,0,.78.63.78,1.33Z"/>
  <path class="custom_svg_lion" d="M172.22,685.95c0,.39.39.78.78.78.47,0,.78-.39.78-.78,0-.47-.31-.78-.78-.78-.39,0-.78.31-.78.78Z"/>
  <path class="custom_svg_lion" d="M238.94,823.06c-.55,2.27-.08,3.2,1.17,2.34,1.09-.63,1.09-4.3.08-4.3-.39,0-.94.86-1.25,1.95Z"/>

</svg>
