<style>

/* ======================
SOURCE: https://github.com/Leon2332/SVG-Source-standalone-/blob/main/Rhino.svg
AUTHOR: Leon (https://github.com/Leon2332)
CLIENT: https://www.naankusecollection.com/
====================== */

	
	.custom_svg_rhino {
		fill: #B3A49130;
  }
  
	:has(#custom_checkbox_rhino input:checked) :is(.custom_svg_rhino) {
  	fill: #B3A491;
  }
  
</style>

<svg
  xmlns:dc="http://purl.org/dc/elements/1.1/"
  xmlns:cc="http://web.resource.org/cc/"
  xmlns:rdf="http://www.w3.org/1999/02/22-rdf-syntax-ns#"
  xmlns:svg="http://www.w3.org/2000/svg"
  xmlns="http://www.w3.org/2000/svg"
  viewBox="0 0 1000 1000"
  width="100%"
  height="">
  
	<path class="custom_svg_rhino" d="M106.3,859.33s-1.34-6.38-2.24-11.96c-.77-4.8-1.11-8.93-1.11-8.93,0,0-25.53-20.15-44.52-39.16-16.01-16.04-25.94-31.42-25.94-31.42,0,0-11.69-13.64-19.91-27.39-7.28-12.25-11.24-24.77-11.24-24.77,0,0-.06-3.49,2.42-3.82,4.02-.51,7.64,3.27,7.64,3.27,0,0,17.22,14.36,37.57,24.94,20.95,10.91,45,18.09,45,18.09,0,0,7.41-.75,15.14-.75,4.55,0,11.17.75,11.17.75,0,0-4.35-6.55-5.84-12.82-1.06-4.53.63-9.36.63-9.36,0,0-3.74-7.56-4.54-14.54-.57-4.99,1.75-10.04,1.75-10.04,0,0,3.44-3.34,10.2-2.75,10.02.85,14.01,5.92,14.01,5.92,0,0,7.04,8.08,13.05,13.61,3.8,3.46,7.65,5.41,7.65,5.41,0,0,8.43-2.68,14.63-15.64,7.07-14.75,12.03-40.07,12.03-40.07,0,0-5.44-9.57-5.19-18.63.19-6.01,6.12-12.85,6.12-12.85,0,0-12.63,2.1-21.3-.68-7.8-2.5-11.71-9.93-11.71-9.93,0,0-6.73-3.02-11.17-9.52-2.87-4.17-4.1-12.85-4.1-12.85,0,0,.5-2.43-.28-5.28-.6-2.14-2.46-4.49-2.66-6.31-.31-2.92,1.27-3.29,1.27-3.29,0,0,3.52-1.45,7.12-.58,4.22.97,8.54,4.3,8.54,4.3,0,0,2.35.89,9.6,2.39,2.92.61,7.9,1.36,11.37,2.54,3.67,1.22,5.86,2.86,9.77,3.66,3.76.75,7.68.96,11.13,1.45,9.5,1.31,16.67,2.07,16.67,2.07l3.73-.92s-8.36-5.84-10.88-15.2c-2.53-9.58,2.49-16.47,2.49-16.47,0,0-.71-2.67,5.62-6.66,3.62-2.32,15.8-6.92,15.8-6.92,0,0,2.28-.42,4.42,1.71,1.49,1.45,1.5,3.57,2.67,5.35,1.21,1.85,3.52,3.35,3.52,3.35,0,0,2.3.71,4.52,3.98,2.36,3.52,4.63,9.63,4.63,9.63l3.53-2.04s.19-20.33,8.99-35.55c2.03-3.55,6.27-8.81,10.75-11.82,4.9-3.24,9.92-4.06,9.92-4.06,0,0,7.44-2.54,14.54-6.63,3.34-1.9,4.15-3.27,6.58-5.13,2.53-1.92,11.3-5.21,11.3-5.21,0,0,13.15-3.09,24.82-3.46,7.54-.25,15.44,2.18,15.44,2.18,0,0,3.45,1.58,9.88,1.56,5.69-.03,13.95-1.72,20.12-1.61,8.05.11,14.93.79,14.93.79,0,0,33.14-2.5,56.29-2.29,13.62.13,22.56,3.03,22.56,3.03,0,0,8.12.88,15.43,2.98,5.88,1.72,10.22,4.56,17.33,5.87,10.35,1.9,22.05,1.22,22.05,1.22,0,0,8.21.42,20.7-.29,12.52-.71,29.35-2.57,44.92-4.09,25.32-2.49,48.27-6.8,48.27-6.8,0,0,41.54-5.56,60.21-7.31,4.7-.4,12.51.6,12.51.6,0,0,19.55,2.75,36.84,5.42,10.66,1.64,22.43,3.71,22.43,3.71,0,0,52.82,2.92,82.98,6.1,11.64,1.24,21.05,4.88,21.05,4.88,0,0,13.83,5.69,31.33,17.38,14.01,9.38,32.41,25.29,32.41,25.29,0,0,13.37,11.97,24.46,25.32,9.14,11.01,16.35,23.83,16.35,23.83,0,0,1.38,2.7,3.76,10.02,1.15,3.41,2.16,7.23,3.26,10.97,1.13,3.74,2.32,7.37,2.32,7.37,0,0,5.65,11.04,5.15,24.96-.51,14.49-7.21,31.85-7.21,31.85,0,0-12.1,23.18-22.65,45.41-9.74,20.56-17.99,40.3-17.99,40.3,0,0-7.33,13.36-12.8,21.19-2.89,4.12-5.65,5.23-5.65,5.23,0,0-9.1,18.12-14.65,34.58-4.63,13.65-5.86,26.15-5.86,26.15,0,0,1.21,6.94-.53,12.87-1.39,4.69-5.81,8.76-5.81,8.76,0,0-2.14,7.09-5.51,11.14-3.52,4.25-8.28,5.42-8.28,5.42,0,0-2.56,4.39-4.84,8.94-2.09,4.18-3.92,8.58-3.92,8.58,0,0,4.19,11.3,5.9,19.17,1.71,7.86,1.02,12.3,1.02,12.3,0,0,.13,5.62-4.92,7.86-5.02,2.22-15.21,1.08-15.21,1.08,0,0-2.5.03-5.65.78-3.73.86-8.54,2.53-14.34,3.18-12.66,1.39-27.02,1.25-26.63,1.25s-13.19.03-17.15-8.24c-2.75-5.7,2.96-15.97,2.96-15.97,0,0,2-3.82,5.8-8.61,3.17-3.95,7.85-8.37,11.14-13.39,3.03-4.71,5.02-10.4,7.28-14.54,3.94-7.24,7.09-11.71,7.09-11.71,0,0,2.41-7.23.96-16.61-1.09-7.03-6.16-16.91-6.16-16.91,0,0-4.41-11.22-7.33-22.68-2.88-11.28-4.22-22.81-4.22-22.81,0,0-1.25-10.09-5.81-16.71-3.2-4.64-10.2-6.56-10.2-6.56,0,0-8.05-5.1-14.97-4.14-4.48.65-8.9,7.51-8.9,7.51,0,0-24.32,22.12-52.08,33.45-29.58,12.05-62.77,13.32-62.77,13.32,0,0-24.15,2.7-50.33,3-31.01.32-64.87-1.71-64.87-1.71,0,0-2.3.08-3.1,7.65-.93,8.41-.43,24.39-.43,24.39,0,0-.5,3.74.47,6.67,1.04,3.13,3.6,5.53,4.27,9.15.86,4.67-.28,8.4-.28,8.4,0,0,.35,4.52,1.57,9.72,1.54,6.55,4.02,14.14,4.02,14.14,0,0,15.18,25.37,18.95,40.17,2.2,8.68-6.09,10.14-6.09,10.14,0,0-7.48,2.07-16.42,3-8.11.85-17.7.51-17.7.51,0,0-29.12,5.3-41.97,1.61-8.11-2.31-2.21-14.26-2.21-14.26,0,0,.78-6.85,4.06-12.36,3.48-5.92,9.57-10.57,9.57-10.57,0,0-.99-13.89-2.31-21.66-.51-3.14-2.18-4.96-2.18-4.96,0,0-5.24-6.81-9.84-12.96-3.44-4.53-6.58-8.84-6.58-8.84,0,0-1.6-1.88-3.19,4.23-1.59,6.09-3.14,20.16-3.14,20.16,0,0,.11,3.02-.85,7.59-.4,2.02-1.84,1.93-2.43,3.86-.64,2.18-.46,6.26-.46,6.26,0,0,9.28,15.67,10.6,23.76,1.41,8.65-5.19,9.77-5.19,9.77,0,0-19.94,3.6-36.36,4.62-12.08.71-21.98-1.07-21.98-1.07,0,0-1.99.19-3.52-.97-1.73-1.32-3-4.06-3-4.06,0,0-12.26,1.29-16.83-2.27-3.19-2.49.79-10.2.79-10.2,0,0,1.28-6.49,5.23-10.43,3.38-3.38,9.53-4.28,9.53-4.28,0,0,7.64-2.54,11.87-9.44,4.08-6.6,4.69-17.6,4.69-17.6,0,0-1.11-12.39-8.01-27.36-3.96-8.56-15.47-23.48-15.47-23.48,0,0-12.38-9.11-21.03-19.14-6.89-7.97-10.46-17.35-10.46-17.35,0,0-9.82,3.82-21.34,1.89-11.31-1.89-24.33-9.52-24.33-9.52,0,0-6.12,7.06-12.85,8.4-5.41,1.06-11.73-3.57-11.73-3.57,0,0-5.87-3.17-10.57-6.77-5.31-4.09-9.58-8.69-9.58-8.69,0,0-.17,13.01-6.94,18.55-6.26,5.07-19.17,2.7-19.17,2.7,0,0-9.28,12.85-21.94,21.12-15.02,9.76-33.8,15.22-33.8,15.22,0,0-3.24.95-5.36,3-3.35,3.29-7.01,8.51-13.81,10.33-10.25,2.79-23.48-1.79-23.48-1.79,0,0-8.82,3.82-18.32,4.94-8.43,1.01-17.67-.65-17.67-.65,0,0-3.9-.03-8.39-3.77-3.53-2.99-7.5-9.11-10.07-14.04-4.69-8.95-2.75-22.63-2.75-22.63Z"/>
	
</svg>
