<style>

  .custom_svg_rhino {
    fill: #B3A491;
  }

  .custom_svg_rhino:hover {
    fill: #B3A49165;
  }
  
</style>

<svg
  xmlns:dc="http://purl.org/dc/elements/1.1/"
  xmlns:cc="http://web.resource.org/cc/"
  xmlns:rdf="http://www.w3.org/1999/02/22-rdf-syntax-ns#"
  xmlns:svg="http://www.w3.org/2000/svg"
  xmlns="http://www.w3.org/2000/svg"
  xmlns:sodipodi="http://sodipodi.sourceforge.net/DTD/sodipodi-0.dtd"
  xmlns:inkscape="http://www.inkscape.org/namespaces/inkscape"
  viewBox="0 0 634.5694 309.01544"
  width="100%"
  height=""
  version="1.0">
  
  
  <g class="custom_svg_rhino" transform="translate(-41.286729,60)">
    <g id="g3" transform="matrix(8.8488265,0,0,8.8488265,-3.1077683,-77.971582)">
	<path clip-rule="evenodd" d="M 12.562,39.248 C 12.562,39.248 12.466,38.789 12.401,38.388 C 12.346,38.043 12.321,37.746 12.321,37.746 C 12.321,37.746 10.486,36.297 9.121,34.929 C 7.97,33.775 7.256,32.669 7.256,32.669 C 7.256,32.669 6.416,31.688 5.825,30.699 C 5.302,29.818 5.017,28.917 5.017,28.917 C 5.017,28.917 5.013,28.666 5.191,28.642 C 5.48,28.605 5.74,28.877 5.74,28.877 C 5.74,28.877 6.978,29.91 8.441,30.671 C 9.947,31.456 11.676,31.972 11.676,31.972 C 11.676,31.972 12.209,31.918 12.764,31.918 C 13.091,31.918 13.567,31.972 13.567,31.972 C 13.567,31.972 13.254,31.501 13.147,31.05 C 13.071,30.724 13.192,30.377 13.192,30.377 C 13.192,30.377 12.923,29.833 12.866,29.331 C 12.825,28.972 12.992,28.609 12.992,28.609 C 12.992,28.609 13.239,28.369 13.725,28.411 C 14.445,28.472 14.732,28.837 14.732,28.837 C 14.732,28.837 15.238,29.418 15.67,29.816 C 15.943,30.065 16.22,30.205 16.22,30.205 C 16.22,30.205 16.826,30.012 17.272,29.08 C 17.78,28.019 18.137,26.198 18.137,26.198 C 18.137,26.198 17.746,25.51 17.764,24.858 C 17.778,24.426 18.204,23.934 18.204,23.934 C 18.204,23.934 17.296,24.085 16.673,23.885 C 16.112,23.705 15.831,23.171 15.831,23.171 C 15.831,23.171 15.347,22.954 15.028,22.486 C 14.822,22.186 14.733,21.562 14.733,21.562 C 14.733,21.562 14.769,21.387 14.713,21.182 C 14.67,21.028 14.536,20.859 14.522,20.728 C 14.5,20.518 14.613,20.491 14.613,20.491 C 14.613,20.491 14.866,20.387 15.125,20.449 C 15.428,20.519 15.739,20.758 15.739,20.758 C 15.739,20.758 15.908,20.822 16.429,20.93 C 16.639,20.974 16.997,21.028 17.246,21.113 C 17.51,21.201 17.667,21.319 17.948,21.376 C 18.218,21.43 18.5,21.445 18.748,21.48 C 19.431,21.574 19.946,21.629 19.946,21.629 L 20.214,21.563 C 20.214,21.563 19.613,21.143 19.432,20.47 C 19.25,19.781 19.611,19.285 19.611,19.285 C 19.611,19.285 19.56,19.093 20.015,18.806 C 20.275,18.639 21.151,18.308 21.151,18.308 C 21.151,18.308 21.315,18.278 21.469,18.431 C 21.576,18.535 21.577,18.688 21.661,18.816 C 21.748,18.949 21.914,19.057 21.914,19.057 C 21.914,19.057 22.079,19.108 22.239,19.343 C 22.409,19.596 22.572,20.036 22.572,20.036 L 22.826,19.889 C 22.826,19.889 22.84,18.427 23.472,17.332 C 23.618,17.077 23.923,16.698 24.245,16.482 C 24.597,16.249 24.958,16.19 24.958,16.19 C 24.958,16.19 25.493,16.007 26.003,15.713 C 26.243,15.576 26.301,15.478 26.476,15.344 C 26.658,15.206 27.288,14.969 27.288,14.969 C 27.288,14.969 28.233,14.747 29.072,14.72 C 29.614,14.702 30.182,14.877 30.182,14.877 C 30.182,14.877 30.43,14.991 30.892,14.989 C 31.301,14.987 31.895,14.865 32.338,14.873 C 32.917,14.881 33.411,14.93 33.411,14.93 C 33.411,14.93 35.793,14.75 37.457,14.765 C 38.436,14.774 39.079,14.983 39.079,14.983 C 39.079,14.983 39.663,15.046 40.188,15.197 C 40.611,15.321 40.923,15.525 41.434,15.619 C 42.178,15.756 43.019,15.707 43.019,15.707 C 43.019,15.707 43.609,15.737 44.507,15.686 C 45.407,15.635 46.617,15.501 47.736,15.392 C 49.556,15.213 51.206,14.903 51.206,14.903 C 51.206,14.903 54.192,14.503 55.534,14.377 C 55.872,14.348 56.433,14.42 56.433,14.42 C 56.433,14.42 57.838,14.618 59.081,14.81 C 59.847,14.928 60.693,15.077 60.693,15.077 C 60.693,15.077 64.49,15.287 66.658,15.516 C 67.495,15.605 68.171,15.867 68.171,15.867 C 68.171,15.867 69.165,16.276 70.423,17.117 C 71.43,17.792 72.753,18.936 72.753,18.936 C 72.753,18.936 73.714,19.797 74.511,20.757 C 75.168,21.549 75.686,22.471 75.686,22.471 C 75.686,22.471 75.785,22.665 75.956,23.192 C 76.039,23.437 76.111,23.712 76.19,23.981 C 76.271,24.25 76.357,24.511 76.357,24.511 C 76.357,24.511 76.763,25.305 76.727,26.306 C 76.69,27.348 76.209,28.597 76.209,28.597 C 76.209,28.597 75.339,30.264 74.581,31.863 C 73.881,33.342 73.288,34.762 73.288,34.762 C 73.288,34.762 72.761,35.723 72.368,36.286 C 72.16,36.582 71.962,36.662 71.962,36.662 C 71.962,36.662 71.308,37.965 70.909,39.149 C 70.576,40.131 70.488,41.03 70.488,41.03 C 70.488,41.03 70.575,41.529 70.45,41.956 C 70.35,42.293 70.032,42.586 70.032,42.586 C 70.032,42.586 69.878,43.096 69.636,43.387 C 69.383,43.693 69.041,43.777 69.041,43.777 C 69.041,43.777 68.857,44.093 68.693,44.42 C 68.543,44.721 68.411,45.037 68.411,45.037 C 68.411,45.037 68.712,45.85 68.835,46.416 C 68.958,46.981 68.908,47.301 68.908,47.301 C 68.908,47.301 68.917,47.705 68.554,47.866 C 68.193,48.026 67.461,47.944 67.461,47.944 C 67.461,47.944 67.281,47.946 67.055,48 C 66.787,48.062 66.441,48.182 66.024,48.229 C 65.114,48.329 64.082,48.319 64.11,48.319 C 64.139,48.319 63.162,48.321 62.877,47.726 C 62.679,47.316 63.09,46.577 63.09,46.577 C 63.09,46.577 63.234,46.302 63.507,45.958 C 63.735,45.674 64.071,45.356 64.308,44.995 C 64.526,44.656 64.669,44.247 64.831,43.949 C 65.114,43.428 65.341,43.107 65.341,43.107 C 65.341,43.107 65.514,42.587 65.41,41.912 C 65.332,41.406 64.967,40.696 64.967,40.696 C 64.967,40.696 64.65,39.889 64.44,39.065 C 64.233,38.254 64.137,37.424 64.137,37.424 C 64.137,37.424 64.047,36.698 63.719,36.222 C 63.489,35.888 62.986,35.75 62.986,35.75 C 62.986,35.75 62.407,35.383 61.91,35.452 C 61.588,35.499 61.27,35.992 61.27,35.992 C 61.27,35.992 59.522,37.583 57.526,38.398 C 55.4,39.265 53.014,39.356 53.014,39.356 C 53.014,39.356 51.278,39.55 49.396,39.572 C 47.167,39.595 44.733,39.449 44.733,39.449 C 44.733,39.449 44.568,39.455 44.51,39.999 C 44.443,40.604 44.479,41.753 44.479,41.753 C 44.479,41.753 44.443,42.022 44.513,42.233 C 44.588,42.458 44.772,42.631 44.82,42.891 C 44.882,43.227 44.8,43.495 44.8,43.495 C 44.8,43.495 44.825,43.82 44.913,44.194 C 45.024,44.665 45.202,45.211 45.202,45.211 C 45.202,45.211 46.293,47.036 46.564,48.1 C 46.722,48.724 46.126,48.829 46.126,48.829 C 46.126,48.829 45.588,48.978 44.946,49.045 C 44.363,49.106 43.674,49.082 43.674,49.082 C 43.674,49.082 41.581,49.463 40.657,49.198 C 40.074,49.032 40.498,48.172 40.498,48.172 C 40.498,48.172 40.554,47.679 40.79,47.283 C 41.04,46.857 41.478,46.523 41.478,46.523 C 41.478,46.523 41.407,45.524 41.312,44.965 C 41.275,44.739 41.155,44.608 41.155,44.608 C 41.155,44.608 40.778,44.118 40.448,43.676 C 40.201,43.35 39.975,43.04 39.975,43.04 C 39.975,43.04 39.86,42.905 39.746,43.344 C 39.632,43.782 39.52,44.794 39.52,44.794 C 39.52,44.794 39.528,45.011 39.459,45.34 C 39.43,45.485 39.327,45.479 39.284,45.618 C 39.238,45.775 39.251,46.068 39.251,46.068 C 39.251,46.068 39.918,47.195 40.013,47.777 C 40.114,48.399 39.64,48.48 39.64,48.48 C 39.64,48.48 38.207,48.739 37.026,48.812 C 36.158,48.863 35.446,48.735 35.446,48.735 C 35.446,48.735 35.303,48.749 35.193,48.665 C 35.069,48.57 34.977,48.373 34.977,48.373 C 34.977,48.373 34.096,48.466 33.767,48.21 C 33.538,48.031 33.824,47.476 33.824,47.476 C 33.824,47.476 33.916,47.009 34.2,46.726 C 34.443,46.483 34.885,46.418 34.885,46.418 C 34.885,46.418 35.434,46.235 35.738,45.739 C 36.031,45.264 36.075,44.473 36.075,44.473 C 36.075,44.473 35.995,43.582 35.499,42.505 C 35.214,41.889 34.387,40.816 34.387,40.816 C 34.387,40.816 33.497,40.161 32.875,39.439 C 32.38,38.866 32.123,38.191 32.123,38.191 C 32.123,38.191 31.417,38.466 30.589,38.327 C 29.776,38.191 28.84,37.642 28.84,37.642 C 28.84,37.642 28.4,38.15 27.916,38.246 C 27.527,38.322 27.073,37.989 27.073,37.989 C 27.073,37.989 26.651,37.761 26.313,37.502 C 25.931,37.208 25.624,36.877 25.624,36.877 C 25.624,36.877 25.612,37.813 25.125,38.211 C 24.675,38.576 23.747,38.405 23.747,38.405 C 23.747,38.405 23.08,39.329 22.17,39.924 C 21.09,40.626 19.74,41.019 19.74,41.019 C 19.74,41.019 19.507,41.087 19.355,41.235 C 19.114,41.472 18.851,41.847 18.362,41.978 C 17.625,42.179 16.674,41.849 16.674,41.849 C 16.674,41.849 16.04,42.124 15.357,42.204 C 14.751,42.277 14.087,42.157 14.087,42.157 C 14.087,42.157 13.807,42.155 13.484,41.886 C 13.23,41.671 12.945,41.231 12.76,40.876 C 12.423,40.232 12.562,39.248 12.562,39.248 z " id="path5" style="fill-rule:evenodd"/>

</g>
  </g>
</svg>
